<?xml version="1.0" encoding="UTF-8" standalone="no"?>
<!DOCTYPE svg PUBLIC "-//W3C//DTD SVG 1.1//EN"
 "http://www.w3.org/Graphics/SVG/1.1/DTD/svg11.dtd">
<!-- Generated by graphviz version 2.34.0 (20131026.0416)
 -->
<!-- Title: controllers_diagram Pages: 1 -->
<svg width="1145pt" height="714pt"
 viewBox="0.00 0.00 1145.38 714.00" xmlns="http://www.w3.org/2000/svg" xmlns:xlink="http://www.w3.org/1999/xlink">
<g id="graph0" class="graph" transform="scale(1 1) rotate(0) translate(4 710)">
<title>controllers_diagram</title>
<polygon fill="white" stroke="white" points="-4,4 -4,-710 1141.38,-710 1141.38,4 -4,4"/>
<!-- _diagram_info -->
<g id="node1" class="node"><title>_diagram_info</title>
<text text-anchor="start" x="938" y="-689" font-family="Times,serif" font-size="13.00">Controllers diagram</text>
<text text-anchor="start" x="938" y="-673.4" font-family="Times,serif" font-size="13.00">Date: Feb 19 2014 &#45; 17:15</text>
<text text-anchor="start" x="938" y="-657.8" font-family="Times,serif" font-size="13.00">Migration version: 20140218012730</text>
<text text-anchor="start" x="938" y="-642.2" font-family="Times,serif" font-size="13.00">Generated by RailRoady 1.1.1</text>
<text text-anchor="start" x="938" y="-626.6" font-family="Times,serif" font-size="13.00">http://railroady.prestonlee.com</text>
</g>
<!-- ApplicationController -->
<g id="node2" class="node"><title>ApplicationController</title>
<ellipse fill="none" stroke="black" cx="534.12" cy="-343.727" rx="96.1448" ry="18"/>
<text text-anchor="middle" x="534.12" y="-338.127" font-family="Times,serif" font-size="14.00">ApplicationController</text>
</g>
<!-- ConcentrationsController -->
<g id="node3" class="node"><title>ConcentrationsController</title>
<ellipse fill="none" stroke="black" cx="774.537" cy="-332.872" rx="109.39" ry="18"/>
<text text-anchor="middle" x="774.537" y="-327.272" font-family="Times,serif" font-size="14.00">ConcentrationsController</text>
</g>
<!-- ApplicationController&#45;&gt;ConcentrationsController -->
<g id="edge1" class="edge"><title>ApplicationController&#45;&gt;ConcentrationsController</title>
<path fill="none" stroke="black" d="M627.76,-339.499C639.642,-338.963 651.889,-338.41 664.005,-337.863"/>
<polyline fill="none" stroke="black" points="669.187,-337.629 664.192,-337.854 "/>
</g>
<!-- ConsultationsController -->
<g id="node4" class="node"><title>ConsultationsController</title>
<ellipse fill="none" stroke="black" cx="461.542" cy="-18" rx="103.696" ry="18"/>
<text text-anchor="middle" x="461.542" y="-12.4" font-family="Times,serif" font-size="14.00">ConsultationsController</text>
</g>
<!-- ApplicationController&#45;&gt;ConsultationsController -->
<g id="edge2" class="edge"><title>ApplicationController&#45;&gt;ConsultationsController</title>
<path fill="none" stroke="black" d="M530.01,-325.282C517.584,-269.518 480.429,-102.762 466.708,-41.1827"/>
<polyline fill="none" stroke="black" points="465.607,-36.2435 466.695,-41.1238 "/>
</g>
<!-- CoursesController -->
<g id="node5" class="node"><title>CoursesController</title>
<ellipse fill="none" stroke="black" cx="350.069" cy="-544.444" rx="81.6928" ry="18"/>
<text text-anchor="middle" x="350.069" y="-538.844" font-family="Times,serif" font-size="14.00">CoursesController</text>
</g>
<!-- ApplicationController&#45;&gt;CoursesController -->
<g id="edge3" class="edge"><title>ApplicationController&#45;&gt;CoursesController</title>
<path fill="none" stroke="black" d="M517.786,-361.54C483.951,-398.439 406.314,-483.105 369.771,-522.958"/>
<polyline fill="none" stroke="black" points="366.366,-526.671 369.745,-522.986 "/>
</g>
<!-- DepartmentsController -->
<g id="node6" class="node"><title>DepartmentsController</title>
<ellipse fill="none" stroke="black" cx="745.25" cy="-543.04" rx="100.142" ry="18"/>
<text text-anchor="middle" x="745.25" y="-537.44" font-family="Times,serif" font-size="14.00">DepartmentsController</text>
</g>
<!-- ApplicationController&#45;&gt;DepartmentsController -->
<g id="edge4" class="edge"><title>ApplicationController&#45;&gt;DepartmentsController</title>
<path fill="none" stroke="black" d="M552.856,-361.415C591.65,-398.038 680.639,-482.046 722.586,-521.644"/>
<polyline fill="none" stroke="black" points="726.252,-525.106 722.616,-521.673 "/>
</g>
<!-- FacultiesController -->
<g id="node7" class="node"><title>FacultiesController</title>
<ellipse fill="none" stroke="black" cx="105.3" cy="-516.196" rx="85.6899" ry="18"/>
<text text-anchor="middle" x="105.3" y="-510.596" font-family="Times,serif" font-size="14.00">FacultiesController</text>
</g>
<!-- ApplicationController&#45;&gt;FacultiesController -->
<g id="edge5" class="edge"><title>ApplicationController&#45;&gt;FacultiesController</title>
<path fill="none" stroke="black" d="M493.391,-360.108C412.833,-392.508 233.719,-464.547 150.02,-498.21"/>
<polyline fill="none" stroke="black" points="145.133,-500.175 149.772,-498.31 "/>
</g>
<!-- FeedbacksController -->
<g id="node8" class="node"><title>FeedbacksController</title>
<ellipse fill="none" stroke="black" cx="91.489" cy="-247.944" rx="91.4781" ry="18"/>
<text text-anchor="middle" x="91.489" y="-242.344" font-family="Times,serif" font-size="14.00">FeedbacksController</text>
</g>
<!-- ApplicationController&#45;&gt;FeedbacksController -->
<g id="edge6" class="edge"><title>ApplicationController&#45;&gt;FeedbacksController</title>
<path fill="none" stroke="black" d="M470.701,-330.004C387.732,-312.05 242.985,-280.727 158.348,-262.412"/>
<polyline fill="none" stroke="black" points="153.362,-261.333 158.249,-262.391 "/>
</g>
<!-- LecturersController -->
<g id="node9" class="node"><title>LecturersController</title>
<ellipse fill="none" stroke="black" cx="982.188" cy="-46.5327" rx="87.3778" ry="18"/>
<text text-anchor="middle" x="982.188" y="-40.9327" font-family="Times,serif" font-size="14.00">LecturersController</text>
</g>
<!-- ApplicationController&#45;&gt;LecturersController -->
<g id="edge7" class="edge"><title>ApplicationController&#45;&gt;LecturersController</title>
<path fill="none" stroke="black" d="M560.475,-326.246C638.616,-274.417 868.74,-121.781 951.829,-66.6694"/>
<polyline fill="none" stroke="black" points="956.146,-63.8059 951.979,-66.5697 "/>
</g>
<!-- PapersController -->
<g id="node10" class="node"><title>PapersController</title>
<ellipse fill="none" stroke="black" cx="151.254" cy="-28.5404" rx="76.451" ry="18"/>
<text text-anchor="middle" x="151.254" y="-22.9404" font-family="Times,serif" font-size="14.00">PapersController</text>
</g>
<!-- ApplicationController&#45;&gt;PapersController -->
<g id="edge8" class="edge"><title>ApplicationController&#45;&gt;PapersController</title>
<path fill="none" stroke="black" d="M506.525,-326.432C461.83,-297.94 371.567,-238.398 301.715,-179.432 251.395,-136.953 198.306,-80.5925 170.628,-50.1941"/>
<polyline fill="none" stroke="black" points="167.057,-46.2602 170.418,-49.962 "/>
</g>
<!-- PklsController -->
<g id="node11" class="node"><title>PklsController</title>
<ellipse fill="none" stroke="black" cx="722.843" cy="-24.9566" rx="67.2408" ry="18"/>
<text text-anchor="middle" x="722.843" y="-19.3566" font-family="Times,serif" font-size="14.00">PklsController</text>
</g>
<!-- ApplicationController&#45;&gt;PklsController -->
<g id="edge9" class="edge"><title>ApplicationController&#45;&gt;PklsController</title>
<path fill="none" stroke="black" d="M533.102,-325.384C532.198,-295.135 533.674,-233.642 556.561,-188.441 588.586,-125.191 654.607,-71.9742 693.127,-44.6609"/>
<polyline fill="none" stroke="black" points="697.225,-41.7792 693.135,-44.6552 "/>
</g>
<!-- SettingsController -->
<g id="node12" class="node"><title>SettingsController</title>
<ellipse fill="none" stroke="black" cx="385.166" cy="-179.493" rx="81.7022" ry="18"/>
<text text-anchor="middle" x="385.166" y="-173.893" font-family="Times,serif" font-size="14.00">SettingsController</text>
</g>
<!-- ApplicationController&#45;&gt;SettingsController -->
<g id="edge10" class="edge"><title>ApplicationController&#45;&gt;SettingsController</title>
<path fill="none" stroke="black" d="M517.895,-325.839C490.362,-295.481 434.589,-233.987 404.863,-201.211"/>
<polyline fill="none" stroke="black" points="401.37,-197.36 404.729,-201.064 "/>
</g>
<!-- SkripsisController -->
<g id="node13" class="node"><title>SkripsisController</title>
<ellipse fill="none" stroke="black" cx="304.278" cy="-345.226" rx="81.7116" ry="18"/>
<text text-anchor="middle" x="304.278" y="-339.626" font-family="Times,serif" font-size="14.00">SkripsisController</text>
</g>
<!-- ApplicationController&#45;&gt;SkripsisController -->
<g id="edge11" class="edge"><title>ApplicationController&#45;&gt;SkripsisController</title>
<path fill="none" stroke="black" d="M437.645,-344.357C422.303,-344.457 406.511,-344.56 391.401,-344.658"/>
<polyline fill="none" stroke="black" points="386.305,-344.691 391.305,-344.659 "/>
</g>
<!-- StaffsController -->
<g id="node14" class="node"><title>StaffsController</title>
<ellipse fill="none" stroke="black" cx="1001.79" cy="-277.171" rx="73.18" ry="18"/>
<text text-anchor="middle" x="1001.79" y="-271.571" font-family="Times,serif" font-size="14.00">StaffsController</text>
</g>
<!-- ApplicationController&#45;&gt;StaffsController -->
<g id="edge12" class="edge"><title>ApplicationController&#45;&gt;StaffsController</title>
<path fill="none" stroke="black" d="M608.318,-332.169C635.9,-327.937 667.468,-323.169 696.202,-319.011 777.131,-307.301 870.246,-294.673 932.212,-286.39"/>
<polyline fill="none" stroke="black" points="937.363,-285.702 932.407,-286.364 "/>
</g>
<!-- StaticPagesController -->
<g id="node15" class="node"><title>StaticPagesController</title>
<ellipse fill="none" stroke="black" cx="994.711" cy="-523.617" rx="95.0044" ry="18"/>
<text text-anchor="middle" x="994.711" y="-518.017" font-family="Times,serif" font-size="14.00">StaticPagesController</text>
</g>
<!-- ApplicationController&#45;&gt;StaticPagesController -->
<g id="edge13" class="edge"><title>ApplicationController&#45;&gt;StaticPagesController</title>
<path fill="none" stroke="black" d="M575.806,-360.009C661.847,-393.613 858.546,-470.436 948.399,-505.53"/>
<polyline fill="none" stroke="black" points="953.119,-507.373 948.461,-505.554 "/>
</g>
<!-- StudentsController -->
<g id="node16" class="node"><title>StudentsController</title>
<ellipse fill="none" stroke="black" cx="547.49" cy="-540.484" rx="83.9928" ry="18"/>
<text text-anchor="middle" x="547.49" y="-534.884" font-family="Times,serif" font-size="14.00">StudentsController</text>
</g>
<!-- ApplicationController&#45;&gt;StudentsController -->
<g id="edge14" class="edge"><title>ApplicationController&#45;&gt;StudentsController</title>
<path fill="none" stroke="black" d="M535.353,-361.885C537.791,-397.758 543.221,-477.661 545.914,-517.284"/>
<polyline fill="none" stroke="black" points="546.259,-522.37 545.92,-517.382 "/>
</g>
<!-- SupervisorsController -->
<g id="node17" class="node"><title>SupervisorsController</title>
<ellipse fill="none" stroke="black" cx="654.489" cy="-188.6" rx="96.1636" ry="18"/>
<text text-anchor="middle" x="654.489" y="-183" font-family="Times,serif" font-size="14.00">SupervisorsController</text>
</g>
<!-- ApplicationController&#45;&gt;SupervisorsController -->
<g id="edge15" class="edge"><title>ApplicationController&#45;&gt;SupervisorsController</title>
<path fill="none" stroke="black" d="M548.163,-325.629C570.36,-297.022 613.485,-241.444 637.43,-210.586"/>
<polyline fill="none" stroke="black" points="640.535,-206.584 637.47,-210.534 "/>
</g>
</g>
</svg>
