<?xml version="1.0" encoding="UTF-8" standalone="no"?>
<!DOCTYPE svg PUBLIC "-//W3C//DTD SVG 1.1//EN"
 "http://www.w3.org/Graphics/SVG/1.1/DTD/svg11.dtd">
<!-- Generated by graphviz version 2.34.0 (20131026.0416)
 -->
<!-- Title: controllers_diagram Pages: 1 -->
<svg width="1172pt" height="1354pt"
 viewBox="0.00 0.00 1172.38 1353.75" xmlns="http://www.w3.org/2000/svg" xmlns:xlink="http://www.w3.org/1999/xlink">
<g id="graph0" class="graph" transform="scale(1 1) rotate(0) translate(4 1349.75)">
<title>controllers_diagram</title>
<polygon fill="white" stroke="white" points="-4,4 -4,-1349.75 1168.38,-1349.75 1168.38,4 -4,4"/>
<!-- _diagram_info -->
<g id="node1" class="node"><title>_diagram_info</title>
<text text-anchor="start" x="965" y="-243" font-family="Times,serif" font-size="13.00">Controllers diagram</text>
<text text-anchor="start" x="965" y="-227.4" font-family="Times,serif" font-size="13.00">Date: Feb 19 2014 &#45; 17:15</text>
<text text-anchor="start" x="965" y="-211.8" font-family="Times,serif" font-size="13.00">Migration version: 20140218012730</text>
<text text-anchor="start" x="965" y="-196.2" font-family="Times,serif" font-size="13.00">Generated by RailRoady 1.1.1</text>
<text text-anchor="start" x="965" y="-180.6" font-family="Times,serif" font-size="13.00">http://railroady.prestonlee.com</text>
</g>
<!-- ApplicationController -->
<g id="node2" class="node"><title>ApplicationController</title>
<path fill="none" stroke="black" d="M236.91,-608.569C236.91,-608.569 410.842,-608.569 410.842,-608.569 416.842,-608.569 422.842,-614.569 422.842,-620.569 422.842,-620.569 422.842,-745.369 422.842,-745.369 422.842,-751.369 416.842,-757.369 410.842,-757.369 410.842,-757.369 236.91,-757.369 236.91,-757.369 230.91,-757.369 224.91,-751.369 224.91,-745.369 224.91,-745.369 224.91,-620.569 224.91,-620.569 224.91,-614.569 230.91,-608.569 236.91,-608.569"/>
<text text-anchor="middle" x="323.876" y="-739.369" font-family="Times,serif" font-size="14.00">ApplicationController</text>
<polyline fill="none" stroke="black" points="224.91,-732.569 422.842,-732.569 "/>
<polyline fill="none" stroke="black" points="224.91,-708.569 422.842,-708.569 "/>
<text text-anchor="start" x="232.91" y="-690.569" font-family="Times,serif" font-size="14.00">configure_permitted_parameters</text>
<text text-anchor="start" x="232.91" y="-673.769" font-family="Times,serif" font-size="14.00">html_request?</text>
<text text-anchor="start" x="232.91" y="-656.969" font-family="Times,serif" font-size="14.00">js_request?</text>
<text text-anchor="start" x="232.91" y="-640.169" font-family="Times,serif" font-size="14.00">json_request?</text>
<polyline fill="none" stroke="black" points="224.91,-633.369 422.842,-633.369 "/>
<text text-anchor="start" x="232.91" y="-615.369" font-family="Times,serif" font-size="14.00">_layout</text>
</g>
<!-- ConcentrationsController -->
<g id="node3" class="node"><title>ConcentrationsController</title>
<path fill="none" stroke="black" d="M734.737,-809.453C734.737,-809.453 869.04,-809.453 869.04,-809.453 875.04,-809.453 881.04,-815.453 881.04,-821.453 881.04,-821.453 881.04,-1047.05 881.04,-1047.05 881.04,-1053.05 875.04,-1059.05 869.04,-1059.05 869.04,-1059.05 734.737,-1059.05 734.737,-1059.05 728.737,-1059.05 722.737,-1053.05 722.737,-1047.05 722.737,-1047.05 722.737,-821.453 722.737,-821.453 722.737,-815.453 728.737,-809.453 734.737,-809.453"/>
<text text-anchor="middle" x="801.888" y="-1041.05" font-family="Times,serif" font-size="14.00">ConcentrationsController</text>
<polyline fill="none" stroke="black" points="722.737,-1034.25 881.04,-1034.25 "/>
<text text-anchor="start" x="730.737" y="-1016.25" font-family="Times,serif" font-size="14.00">_callback_before_14</text>
<text text-anchor="start" x="730.737" y="-999.453" font-family="Times,serif" font-size="14.00">create</text>
<text text-anchor="start" x="730.737" y="-982.653" font-family="Times,serif" font-size="14.00">destroy</text>
<text text-anchor="start" x="730.737" y="-965.853" font-family="Times,serif" font-size="14.00">edit</text>
<text text-anchor="start" x="730.737" y="-949.053" font-family="Times,serif" font-size="14.00">index</text>
<text text-anchor="start" x="730.737" y="-932.253" font-family="Times,serif" font-size="14.00">new</text>
<text text-anchor="start" x="730.737" y="-915.453" font-family="Times,serif" font-size="14.00">show</text>
<text text-anchor="start" x="730.737" y="-898.653" font-family="Times,serif" font-size="14.00">update</text>
<polyline fill="none" stroke="black" points="722.737,-891.853 881.04,-891.853 "/>
<polyline fill="none" stroke="black" points="722.737,-867.853 881.04,-867.853 "/>
<text text-anchor="start" x="730.737" y="-849.853" font-family="Times,serif" font-size="14.00">_layout</text>
<text text-anchor="start" x="730.737" y="-833.053" font-family="Times,serif" font-size="14.00">concentration_params</text>
<text text-anchor="start" x="730.737" y="-816.253" font-family="Times,serif" font-size="14.00">set_concentration</text>
</g>
<!-- ApplicationController&#45;&gt;ConcentrationsController -->
<g id="edge1" class="edge"><title>ApplicationController&#45;&gt;ConcentrationsController</title>
<path fill="none" stroke="black" d="M422.867,-742.091C452.489,-758.805 485.355,-776.403 516.393,-791.009 538.008,-801.181 544.789,-800.479 566.539,-810.36 617.852,-833.672 673.736,-862.918 718.167,-887.141"/>
<polyline fill="none" stroke="black" points="722.703,-889.618 718.315,-887.222 "/>
</g>
<!-- ConsultationsController -->
<g id="node4" class="node"><title>ConsultationsController</title>
<path fill="none" stroke="black" d="M399.175,-0.5C399.175,-0.5 525.727,-0.5 525.727,-0.5 531.727,-0.5 537.727,-6.5 537.727,-12.5 537.727,-12.5 537.727,-238.1 537.727,-238.1 537.727,-244.1 531.727,-250.1 525.727,-250.1 525.727,-250.1 399.175,-250.1 399.175,-250.1 393.175,-250.1 387.175,-244.1 387.175,-238.1 387.175,-238.1 387.175,-12.5 387.175,-12.5 387.175,-6.5 393.175,-0.5 399.175,-0.5"/>
<text text-anchor="middle" x="462.451" y="-232.1" font-family="Times,serif" font-size="14.00">ConsultationsController</text>
<polyline fill="none" stroke="black" points="387.175,-225.3 537.727,-225.3 "/>
<text text-anchor="start" x="395.175" y="-207.3" font-family="Times,serif" font-size="14.00">_callback_before_15</text>
<text text-anchor="start" x="395.175" y="-190.5" font-family="Times,serif" font-size="14.00">create</text>
<text text-anchor="start" x="395.175" y="-173.7" font-family="Times,serif" font-size="14.00">destroy</text>
<text text-anchor="start" x="395.175" y="-156.9" font-family="Times,serif" font-size="14.00">edit</text>
<text text-anchor="start" x="395.175" y="-140.1" font-family="Times,serif" font-size="14.00">index</text>
<text text-anchor="start" x="395.175" y="-123.3" font-family="Times,serif" font-size="14.00">new</text>
<text text-anchor="start" x="395.175" y="-106.5" font-family="Times,serif" font-size="14.00">update</text>
<polyline fill="none" stroke="black" points="387.175,-99.7 537.727,-99.7 "/>
<polyline fill="none" stroke="black" points="387.175,-75.7 537.727,-75.7 "/>
<text text-anchor="start" x="395.175" y="-57.7" font-family="Times,serif" font-size="14.00">_layout</text>
<text text-anchor="start" x="395.175" y="-40.9" font-family="Times,serif" font-size="14.00">consultation_params</text>
<text text-anchor="start" x="395.175" y="-24.1" font-family="Times,serif" font-size="14.00">course_id</text>
<text text-anchor="start" x="395.175" y="-7.3" font-family="Times,serif" font-size="14.00">set_consultation</text>
</g>
<!-- ApplicationController&#45;&gt;ConsultationsController -->
<g id="edge2" class="edge"><title>ApplicationController&#45;&gt;ConsultationsController</title>
<path fill="none" stroke="black" d="M326.512,-608.318C330.704,-534.354 341.556,-418.485 369.639,-322.071 376.122,-299.811 384.833,-276.912 394.33,-254.962"/>
<polyline fill="none" stroke="black" points="396.368,-250.293 394.368,-254.875 "/>
</g>
<!-- CoursesController -->
<g id="node5" class="node"><title>CoursesController</title>
<path fill="none" stroke="black" d="M57.9886,-1168.25C57.9886,-1168.25 167.375,-1168.25 167.375,-1168.25 173.375,-1168.25 179.375,-1174.25 179.375,-1180.25 179.375,-1180.25 179.375,-1271.45 179.375,-1271.45 179.375,-1277.45 173.375,-1283.45 167.375,-1283.45 167.375,-1283.45 57.9886,-1283.45 57.9886,-1283.45 51.9886,-1283.45 45.9886,-1277.45 45.9886,-1271.45 45.9886,-1271.45 45.9886,-1180.25 45.9886,-1180.25 45.9886,-1174.25 51.9886,-1168.25 57.9886,-1168.25"/>
<text text-anchor="middle" x="112.682" y="-1265.45" font-family="Times,serif" font-size="14.00">CoursesController</text>
<polyline fill="none" stroke="black" points="45.9886,-1258.65 179.375,-1258.65 "/>
<text text-anchor="start" x="53.9886" y="-1240.65" font-family="Times,serif" font-size="14.00">_callback_before_16</text>
<text text-anchor="start" x="53.9886" y="-1223.85" font-family="Times,serif" font-size="14.00">index</text>
<polyline fill="none" stroke="black" points="45.9886,-1217.05 179.375,-1217.05 "/>
<polyline fill="none" stroke="black" points="45.9886,-1193.05 179.375,-1193.05 "/>
<text text-anchor="start" x="53.9886" y="-1175.05" font-family="Times,serif" font-size="14.00">_layout</text>
</g>
<!-- ApplicationController&#45;&gt;CoursesController -->
<g id="edge3" class="edge"><title>ApplicationController&#45;&gt;CoursesController</title>
<path fill="none" stroke="black" d="M313.687,-757.499C300.18,-841.308 271.596,-979.877 218.421,-1088.5 205.404,-1115.09 186.777,-1141.53 168.773,-1164"/>
<polyline fill="none" stroke="black" points="165.42,-1168.15 168.563,-1164.26 "/>
</g>
<!-- DepartmentsController -->
<g id="node6" class="node"><title>DepartmentsController</title>
<path fill="none" stroke="black" d="M430.263,-813.56C430.263,-813.56 551.339,-813.56 551.339,-813.56 557.339,-813.56 563.339,-819.56 563.339,-825.56 563.339,-825.56 563.339,-1051.16 563.339,-1051.16 563.339,-1057.16 557.339,-1063.16 551.339,-1063.16 551.339,-1063.16 430.263,-1063.16 430.263,-1063.16 424.263,-1063.16 418.263,-1057.16 418.263,-1051.16 418.263,-1051.16 418.263,-825.56 418.263,-825.56 418.263,-819.56 424.263,-813.56 430.263,-813.56"/>
<text text-anchor="middle" x="490.801" y="-1045.16" font-family="Times,serif" font-size="14.00">DepartmentsController</text>
<polyline fill="none" stroke="black" points="418.263,-1038.36 563.339,-1038.36 "/>
<text text-anchor="start" x="426.263" y="-1020.36" font-family="Times,serif" font-size="14.00">_callback_before_17</text>
<text text-anchor="start" x="426.263" y="-1003.56" font-family="Times,serif" font-size="14.00">create</text>
<text text-anchor="start" x="426.263" y="-986.76" font-family="Times,serif" font-size="14.00">destroy</text>
<text text-anchor="start" x="426.263" y="-969.96" font-family="Times,serif" font-size="14.00">edit</text>
<text text-anchor="start" x="426.263" y="-953.16" font-family="Times,serif" font-size="14.00">index</text>
<text text-anchor="start" x="426.263" y="-936.36" font-family="Times,serif" font-size="14.00">new</text>
<text text-anchor="start" x="426.263" y="-919.56" font-family="Times,serif" font-size="14.00">show</text>
<text text-anchor="start" x="426.263" y="-902.76" font-family="Times,serif" font-size="14.00">update</text>
<polyline fill="none" stroke="black" points="418.263,-895.96 563.339,-895.96 "/>
<polyline fill="none" stroke="black" points="418.263,-871.96 563.339,-871.96 "/>
<text text-anchor="start" x="426.263" y="-853.96" font-family="Times,serif" font-size="14.00">_layout</text>
<text text-anchor="start" x="426.263" y="-837.16" font-family="Times,serif" font-size="14.00">department_params</text>
<text text-anchor="start" x="426.263" y="-820.36" font-family="Times,serif" font-size="14.00">set_department</text>
</g>
<!-- ApplicationController&#45;&gt;DepartmentsController -->
<g id="edge4" class="edge"><title>ApplicationController&#45;&gt;DepartmentsController</title>
<path fill="none" stroke="black" d="M372.606,-757.525C385.958,-777.953 400.754,-800.59 415.23,-822.738"/>
<polyline fill="none" stroke="black" points="418.12,-827.16 415.384,-822.975 "/>
</g>
<!-- FacultiesController -->
<g id="node7" class="node"><title>FacultiesController</title>
<path fill="none" stroke="black" d="M93.8344,-835.7C93.8344,-835.7 203.221,-835.7 203.221,-835.7 209.221,-835.7 215.221,-841.7 215.221,-847.7 215.221,-847.7 215.221,-1073.3 215.221,-1073.3 215.221,-1079.3 209.221,-1085.3 203.221,-1085.3 203.221,-1085.3 93.8344,-1085.3 93.8344,-1085.3 87.8344,-1085.3 81.8344,-1079.3 81.8344,-1073.3 81.8344,-1073.3 81.8344,-847.7 81.8344,-847.7 81.8344,-841.7 87.8344,-835.7 93.8344,-835.7"/>
<text text-anchor="middle" x="148.528" y="-1067.3" font-family="Times,serif" font-size="14.00">FacultiesController</text>
<polyline fill="none" stroke="black" points="81.8344,-1060.5 215.221,-1060.5 "/>
<text text-anchor="start" x="89.8344" y="-1042.5" font-family="Times,serif" font-size="14.00">_callback_before_18</text>
<text text-anchor="start" x="89.8344" y="-1025.7" font-family="Times,serif" font-size="14.00">create</text>
<text text-anchor="start" x="89.8344" y="-1008.9" font-family="Times,serif" font-size="14.00">destroy</text>
<text text-anchor="start" x="89.8344" y="-992.1" font-family="Times,serif" font-size="14.00">edit</text>
<text text-anchor="start" x="89.8344" y="-975.3" font-family="Times,serif" font-size="14.00">index</text>
<text text-anchor="start" x="89.8344" y="-958.5" font-family="Times,serif" font-size="14.00">new</text>
<text text-anchor="start" x="89.8344" y="-941.7" font-family="Times,serif" font-size="14.00">show</text>
<text text-anchor="start" x="89.8344" y="-924.9" font-family="Times,serif" font-size="14.00">update</text>
<polyline fill="none" stroke="black" points="81.8344,-918.1 215.221,-918.1 "/>
<polyline fill="none" stroke="black" points="81.8344,-894.1 215.221,-894.1 "/>
<text text-anchor="start" x="89.8344" y="-876.1" font-family="Times,serif" font-size="14.00">_layout</text>
<text text-anchor="start" x="89.8344" y="-859.3" font-family="Times,serif" font-size="14.00">faculty_params</text>
<text text-anchor="start" x="89.8344" y="-842.5" font-family="Times,serif" font-size="14.00">set_faculty</text>
</g>
<!-- ApplicationController&#45;&gt;FacultiesController -->
<g id="edge5" class="edge"><title>ApplicationController&#45;&gt;FacultiesController</title>
<path fill="none" stroke="black" d="M276.655,-757.707C258.672,-786.169 237.781,-819.234 218.152,-850.302"/>
<polyline fill="none" stroke="black" points="215.266,-854.871 217.936,-850.644 "/>
</g>
<!-- FeedbacksController -->
<g id="node8" class="node"><title>FeedbacksController</title>
<path fill="none" stroke="black" d="M56.2994,-319.281C56.2994,-319.281 165.686,-319.281 165.686,-319.281 171.686,-319.281 177.686,-325.281 177.686,-331.281 177.686,-331.281 177.686,-523.281 177.686,-523.281 177.686,-529.281 171.686,-535.281 165.686,-535.281 165.686,-535.281 56.2994,-535.281 56.2994,-535.281 50.2994,-535.281 44.2994,-529.281 44.2994,-523.281 44.2994,-523.281 44.2994,-331.281 44.2994,-331.281 44.2994,-325.281 50.2994,-319.281 56.2994,-319.281"/>
<text text-anchor="middle" x="110.993" y="-517.281" font-family="Times,serif" font-size="14.00">FeedbacksController</text>
<polyline fill="none" stroke="black" points="44.2994,-510.481 177.686,-510.481 "/>
<text text-anchor="start" x="52.2994" y="-492.481" font-family="Times,serif" font-size="14.00">_callback_before_19</text>
<text text-anchor="start" x="52.2994" y="-475.681" font-family="Times,serif" font-size="14.00">create</text>
<text text-anchor="start" x="52.2994" y="-458.881" font-family="Times,serif" font-size="14.00">destroy</text>
<text text-anchor="start" x="52.2994" y="-442.081" font-family="Times,serif" font-size="14.00">index</text>
<text text-anchor="start" x="52.2994" y="-425.281" font-family="Times,serif" font-size="14.00">new</text>
<polyline fill="none" stroke="black" points="44.2994,-418.481 177.686,-418.481 "/>
<polyline fill="none" stroke="black" points="44.2994,-394.481 177.686,-394.481 "/>
<text text-anchor="start" x="52.2994" y="-376.481" font-family="Times,serif" font-size="14.00">_layout</text>
<text text-anchor="start" x="52.2994" y="-359.681" font-family="Times,serif" font-size="14.00">course_id</text>
<text text-anchor="start" x="52.2994" y="-342.881" font-family="Times,serif" font-size="14.00">feedback_params</text>
<text text-anchor="start" x="52.2994" y="-326.081" font-family="Times,serif" font-size="14.00">set_feedback</text>
</g>
<!-- ApplicationController&#45;&gt;FeedbacksController -->
<g id="edge6" class="edge"><title>ApplicationController&#45;&gt;FeedbacksController</title>
<path fill="none" stroke="black" d="M261.729,-608.326C236.594,-578.137 207.449,-543.131 181.523,-511.993"/>
<polyline fill="none" stroke="black" points="178.051,-507.823 181.251,-511.665 "/>
</g>
<!-- LecturersController -->
<g id="node9" class="node"><title>LecturersController</title>
<path fill="none" stroke="black" d="M725.216,-262.905C725.216,-262.905 834.602,-262.905 834.602,-262.905 840.602,-262.905 846.602,-268.905 846.602,-274.905 846.602,-274.905 846.602,-517.305 846.602,-517.305 846.602,-523.305 840.602,-529.305 834.602,-529.305 834.602,-529.305 725.216,-529.305 725.216,-529.305 719.216,-529.305 713.216,-523.305 713.216,-517.305 713.216,-517.305 713.216,-274.905 713.216,-274.905 713.216,-268.905 719.216,-262.905 725.216,-262.905"/>
<text text-anchor="middle" x="779.909" y="-511.305" font-family="Times,serif" font-size="14.00">LecturersController</text>
<polyline fill="none" stroke="black" points="713.216,-504.505 846.602,-504.505 "/>
<text text-anchor="start" x="721.216" y="-486.505" font-family="Times,serif" font-size="14.00">_callback_before_20</text>
<text text-anchor="start" x="721.216" y="-469.705" font-family="Times,serif" font-size="14.00">create</text>
<text text-anchor="start" x="721.216" y="-452.905" font-family="Times,serif" font-size="14.00">destroy</text>
<text text-anchor="start" x="721.216" y="-436.105" font-family="Times,serif" font-size="14.00">edit</text>
<text text-anchor="start" x="721.216" y="-419.305" font-family="Times,serif" font-size="14.00">index</text>
<text text-anchor="start" x="721.216" y="-402.505" font-family="Times,serif" font-size="14.00">new</text>
<text text-anchor="start" x="721.216" y="-385.705" font-family="Times,serif" font-size="14.00">search</text>
<text text-anchor="start" x="721.216" y="-368.905" font-family="Times,serif" font-size="14.00">show</text>
<text text-anchor="start" x="721.216" y="-352.105" font-family="Times,serif" font-size="14.00">update</text>
<polyline fill="none" stroke="black" points="713.216,-345.305 846.602,-345.305 "/>
<polyline fill="none" stroke="black" points="713.216,-321.305 846.602,-321.305 "/>
<text text-anchor="start" x="721.216" y="-303.305" font-family="Times,serif" font-size="14.00">_layout</text>
<text text-anchor="start" x="721.216" y="-286.505" font-family="Times,serif" font-size="14.00">lecturer_params</text>
<text text-anchor="start" x="721.216" y="-269.705" font-family="Times,serif" font-size="14.00">set_lecturer</text>
</g>
<!-- ApplicationController&#45;&gt;LecturersController -->
<g id="edge7" class="edge"><title>ApplicationController&#45;&gt;LecturersController</title>
<path fill="none" stroke="black" d="M401.036,-608.428C434.78,-578.146 475.86,-544.24 516.393,-518.209 577.653,-478.867 653.64,-445.06 708.253,-423.06"/>
<polyline fill="none" stroke="black" points="713.139,-421.101 708.498,-422.962 "/>
</g>
<!-- PapersController -->
<g id="node10" class="node"><title>PapersController</title>
<path fill="none" stroke="black" d="M68.9049,-18.1211C68.9049,-18.1211 178.292,-18.1211 178.292,-18.1211 184.292,-18.1211 190.292,-24.1211 190.292,-30.1211 190.292,-30.1211 190.292,-238.921 190.292,-238.921 190.292,-244.921 184.292,-250.921 178.292,-250.921 178.292,-250.921 68.9049,-250.921 68.9049,-250.921 62.9049,-250.921 56.9049,-244.921 56.9049,-238.921 56.9049,-238.921 56.9049,-30.1211 56.9049,-30.1211 56.9049,-24.1211 62.9049,-18.1211 68.9049,-18.1211"/>
<text text-anchor="middle" x="123.598" y="-232.921" font-family="Times,serif" font-size="14.00">PapersController</text>
<polyline fill="none" stroke="black" points="56.9049,-226.121 190.292,-226.121 "/>
<text text-anchor="start" x="64.9049" y="-208.121" font-family="Times,serif" font-size="14.00">_callback_before_21</text>
<text text-anchor="start" x="64.9049" y="-191.321" font-family="Times,serif" font-size="14.00">create</text>
<text text-anchor="start" x="64.9049" y="-174.521" font-family="Times,serif" font-size="14.00">destroy</text>
<text text-anchor="start" x="64.9049" y="-157.721" font-family="Times,serif" font-size="14.00">index</text>
<text text-anchor="start" x="64.9049" y="-140.921" font-family="Times,serif" font-size="14.00">new</text>
<text text-anchor="start" x="64.9049" y="-124.121" font-family="Times,serif" font-size="14.00">show</text>
<polyline fill="none" stroke="black" points="56.9049,-117.321 190.292,-117.321 "/>
<polyline fill="none" stroke="black" points="56.9049,-93.3211 190.292,-93.3211 "/>
<text text-anchor="start" x="64.9049" y="-75.3211" font-family="Times,serif" font-size="14.00">_layout</text>
<text text-anchor="start" x="64.9049" y="-58.5211" font-family="Times,serif" font-size="14.00">course_id</text>
<text text-anchor="start" x="64.9049" y="-41.7211" font-family="Times,serif" font-size="14.00">paper_params</text>
<text text-anchor="start" x="64.9049" y="-24.9211" font-family="Times,serif" font-size="14.00">set_paper</text>
</g>
<!-- ApplicationController&#45;&gt;PapersController -->
<g id="edge8" class="edge"><title>ApplicationController&#45;&gt;PapersController</title>
<path fill="none" stroke="black" d="M296.657,-608.432C263.566,-517.814 207.272,-363.656 167.902,-255.843"/>
<polyline fill="none" stroke="black" points="166.157,-251.066 167.872,-255.763 "/>
</g>
<!-- PklsController -->
<g id="node11" class="node"><title>PklsController</title>
<path fill="none" stroke="black" d="M739.688,-8.60563C739.688,-8.60563 849.074,-8.60563 849.074,-8.60563 855.074,-8.60563 861.074,-14.6056 861.074,-20.6056 861.074,-20.6056 861.074,-229.406 861.074,-229.406 861.074,-235.406 855.074,-241.406 849.074,-241.406 849.074,-241.406 739.688,-241.406 739.688,-241.406 733.688,-241.406 727.688,-235.406 727.688,-229.406 727.688,-229.406 727.688,-20.6056 727.688,-20.6056 727.688,-14.6056 733.688,-8.60563 739.688,-8.60563"/>
<text text-anchor="middle" x="794.381" y="-223.406" font-family="Times,serif" font-size="14.00">PklsController</text>
<polyline fill="none" stroke="black" points="727.688,-216.606 861.074,-216.606 "/>
<text text-anchor="start" x="735.688" y="-198.606" font-family="Times,serif" font-size="14.00">_callback_before_22</text>
<text text-anchor="start" x="735.688" y="-181.806" font-family="Times,serif" font-size="14.00">create</text>
<text text-anchor="start" x="735.688" y="-165.006" font-family="Times,serif" font-size="14.00">destroy</text>
<text text-anchor="start" x="735.688" y="-148.206" font-family="Times,serif" font-size="14.00">edit</text>
<text text-anchor="start" x="735.688" y="-131.406" font-family="Times,serif" font-size="14.00">new</text>
<text text-anchor="start" x="735.688" y="-114.606" font-family="Times,serif" font-size="14.00">show</text>
<text text-anchor="start" x="735.688" y="-97.8056" font-family="Times,serif" font-size="14.00">update</text>
<polyline fill="none" stroke="black" points="727.688,-91.0056 861.074,-91.0056 "/>
<polyline fill="none" stroke="black" points="727.688,-67.0056 861.074,-67.0056 "/>
<text text-anchor="start" x="735.688" y="-49.0056" font-family="Times,serif" font-size="14.00">_layout</text>
<text text-anchor="start" x="735.688" y="-32.2056" font-family="Times,serif" font-size="14.00">pkl_params</text>
<text text-anchor="start" x="735.688" y="-15.4056" font-family="Times,serif" font-size="14.00">set_pkl</text>
</g>
<!-- ApplicationController&#45;&gt;PklsController -->
<g id="edge9" class="edge"><title>ApplicationController&#45;&gt;PklsController</title>
<path fill="none" stroke="black" d="M386.842,-608.298C474.484,-504.365 632.746,-316.685 724.122,-208.324"/>
<polyline fill="none" stroke="black" points="727.613,-204.184 724.39,-208.006 "/>
</g>
<!-- SettingsController -->
<g id="node12" class="node"><title>SettingsController</title>
<path fill="none" stroke="black" d="M384.839,-325.271C384.839,-325.271 479.501,-325.271 479.501,-325.271 485.501,-325.271 491.501,-331.271 491.501,-337.271 491.501,-337.271 491.501,-462.071 491.501,-462.071 491.501,-468.071 485.501,-474.071 479.501,-474.071 479.501,-474.071 384.839,-474.071 384.839,-474.071 378.839,-474.071 372.839,-468.071 372.839,-462.071 372.839,-462.071 372.839,-337.271 372.839,-337.271 372.839,-331.271 378.839,-325.271 384.839,-325.271"/>
<text text-anchor="middle" x="432.17" y="-456.071" font-family="Times,serif" font-size="14.00">SettingsController</text>
<polyline fill="none" stroke="black" points="372.839,-449.271 491.501,-449.271 "/>
<text text-anchor="start" x="380.839" y="-431.271" font-family="Times,serif" font-size="14.00">destroy</text>
<text text-anchor="start" x="380.839" y="-414.471" font-family="Times,serif" font-size="14.00">index</text>
<text text-anchor="start" x="380.839" y="-397.671" font-family="Times,serif" font-size="14.00">update</text>
<polyline fill="none" stroke="black" points="372.839,-390.871 491.501,-390.871 "/>
<polyline fill="none" stroke="black" points="372.839,-366.871 491.501,-366.871 "/>
<text text-anchor="start" x="380.839" y="-348.871" font-family="Times,serif" font-size="14.00">_layout</text>
<text text-anchor="start" x="380.839" y="-332.071" font-family="Times,serif" font-size="14.00">setting_params</text>
</g>
<!-- ApplicationController&#45;&gt;SettingsController -->
<g id="edge10" class="edge"><title>ApplicationController&#45;&gt;SettingsController</title>
<path fill="none" stroke="black" d="M352.329,-608.535C367.564,-568.679 386.333,-519.581 401.844,-479.003"/>
<polyline fill="none" stroke="black" points="403.719,-474.098 401.934,-478.769 "/>
</g>
<!-- SkripsisController -->
<g id="node13" class="node"><title>SkripsisController</title>
<path fill="none" stroke="black" d="M12,-592.258C12,-592.258 121.387,-592.258 121.387,-592.258 127.387,-592.258 133.387,-598.258 133.387,-604.258 133.387,-604.258 133.387,-813.058 133.387,-813.058 133.387,-819.058 127.387,-825.058 121.387,-825.058 121.387,-825.058 12,-825.058 12,-825.058 6,-825.058 0,-819.058 0,-813.058 0,-813.058 0,-604.258 0,-604.258 0,-598.258 6,-592.258 12,-592.258"/>
<text text-anchor="middle" x="66.6934" y="-807.058" font-family="Times,serif" font-size="14.00">SkripsisController</text>
<polyline fill="none" stroke="black" points="0,-800.258 133.387,-800.258 "/>
<text text-anchor="start" x="8" y="-782.258" font-family="Times,serif" font-size="14.00">_callback_before_23</text>
<text text-anchor="start" x="8" y="-765.458" font-family="Times,serif" font-size="14.00">create</text>
<text text-anchor="start" x="8" y="-748.658" font-family="Times,serif" font-size="14.00">destroy</text>
<text text-anchor="start" x="8" y="-731.858" font-family="Times,serif" font-size="14.00">edit</text>
<text text-anchor="start" x="8" y="-715.058" font-family="Times,serif" font-size="14.00">new</text>
<text text-anchor="start" x="8" y="-698.258" font-family="Times,serif" font-size="14.00">show</text>
<text text-anchor="start" x="8" y="-681.458" font-family="Times,serif" font-size="14.00">update</text>
<polyline fill="none" stroke="black" points="0,-674.658 133.387,-674.658 "/>
<polyline fill="none" stroke="black" points="0,-650.658 133.387,-650.658 "/>
<text text-anchor="start" x="8" y="-632.658" font-family="Times,serif" font-size="14.00">_layout</text>
<text text-anchor="start" x="8" y="-615.858" font-family="Times,serif" font-size="14.00">set_skripsi</text>
<text text-anchor="start" x="8" y="-599.058" font-family="Times,serif" font-size="14.00">skripsi_params</text>
</g>
<!-- ApplicationController&#45;&gt;SkripsisController -->
<g id="edge11" class="edge"><title>ApplicationController&#45;&gt;SkripsisController</title>
<path fill="none" stroke="black" d="M224.81,-692.864C196.156,-695.726 165.434,-698.795 138.762,-701.459"/>
<polyline fill="none" stroke="black" points="133.484,-701.987 138.459,-701.49 "/>
</g>
<!-- StaffsController -->
<g id="node14" class="node"><title>StaffsController</title>
<path fill="none" stroke="black" d="M788.441,-537.157C788.441,-537.157 897.828,-537.157 897.828,-537.157 903.828,-537.157 909.828,-543.157 909.828,-549.157 909.828,-549.157 909.828,-774.757 909.828,-774.757 909.828,-780.757 903.828,-786.757 897.828,-786.757 897.828,-786.757 788.441,-786.757 788.441,-786.757 782.441,-786.757 776.441,-780.757 776.441,-774.757 776.441,-774.757 776.441,-549.157 776.441,-549.157 776.441,-543.157 782.441,-537.157 788.441,-537.157"/>
<text text-anchor="middle" x="843.135" y="-768.757" font-family="Times,serif" font-size="14.00">StaffsController</text>
<polyline fill="none" stroke="black" points="776.441,-761.957 909.828,-761.957 "/>
<text text-anchor="start" x="784.441" y="-743.957" font-family="Times,serif" font-size="14.00">_callback_before_24</text>
<text text-anchor="start" x="784.441" y="-727.157" font-family="Times,serif" font-size="14.00">create</text>
<text text-anchor="start" x="784.441" y="-710.357" font-family="Times,serif" font-size="14.00">destroy</text>
<text text-anchor="start" x="784.441" y="-693.557" font-family="Times,serif" font-size="14.00">edit</text>
<text text-anchor="start" x="784.441" y="-676.757" font-family="Times,serif" font-size="14.00">index</text>
<text text-anchor="start" x="784.441" y="-659.957" font-family="Times,serif" font-size="14.00">new</text>
<text text-anchor="start" x="784.441" y="-643.157" font-family="Times,serif" font-size="14.00">show</text>
<text text-anchor="start" x="784.441" y="-626.357" font-family="Times,serif" font-size="14.00">update</text>
<polyline fill="none" stroke="black" points="776.441,-619.557 909.828,-619.557 "/>
<polyline fill="none" stroke="black" points="776.441,-595.557 909.828,-595.557 "/>
<text text-anchor="start" x="784.441" y="-577.557" font-family="Times,serif" font-size="14.00">_layout</text>
<text text-anchor="start" x="784.441" y="-560.757" font-family="Times,serif" font-size="14.00">set_staff</text>
<text text-anchor="start" x="784.441" y="-543.957" font-family="Times,serif" font-size="14.00">staff_params</text>
</g>
<!-- ApplicationController&#45;&gt;StaffsController -->
<g id="edge12" class="edge"><title>ApplicationController&#45;&gt;StaffsController</title>
<path fill="none" stroke="black" d="M423.124,-751.312C451.939,-767.57 484.318,-782.624 516.393,-791.009 579.195,-807.427 600.631,-810.818 662.448,-791.009 702.323,-778.231 740.89,-753.063 772.08,-728.319"/>
<polyline fill="none" stroke="black" points="776.236,-724.99 772.334,-728.116 "/>
</g>
<!-- StaticPagesController -->
<g id="node15" class="node"><title>StaticPagesController</title>
<path fill="none" stroke="black" d="M728.918,-1171.09C728.918,-1171.09 843.008,-1171.09 843.008,-1171.09 849.008,-1171.09 855.008,-1177.09 855.008,-1183.09 855.008,-1183.09 855.008,-1257.49 855.008,-1257.49 855.008,-1263.49 849.008,-1269.49 843.008,-1269.49 843.008,-1269.49 728.918,-1269.49 728.918,-1269.49 722.918,-1269.49 716.918,-1263.49 716.918,-1257.49 716.918,-1257.49 716.918,-1183.09 716.918,-1183.09 716.918,-1177.09 722.918,-1171.09 728.918,-1171.09"/>
<text text-anchor="middle" x="785.963" y="-1251.49" font-family="Times,serif" font-size="14.00">StaticPagesController</text>
<polyline fill="none" stroke="black" points="716.918,-1244.69 855.008,-1244.69 "/>
<text text-anchor="start" x="724.918" y="-1226.69" font-family="Times,serif" font-size="14.00">index</text>
<polyline fill="none" stroke="black" points="716.918,-1219.89 855.008,-1219.89 "/>
<polyline fill="none" stroke="black" points="716.918,-1195.89 855.008,-1195.89 "/>
<text text-anchor="start" x="724.918" y="-1177.89" font-family="Times,serif" font-size="14.00">_layout</text>
</g>
<!-- ApplicationController&#45;&gt;StaticPagesController -->
<g id="edge13" class="edge"><title>ApplicationController&#45;&gt;StaticPagesController</title>
<path fill="none" stroke="black" d="M422.867,-742.091C452.489,-758.805 485.355,-776.403 516.393,-791.009 538.008,-801.181 548.639,-794.54 566.539,-810.36 624.664,-861.733 719.193,-1067.03 762.701,-1166.17"/>
<polyline fill="none" stroke="black" points="764.733,-1170.81 762.727,-1166.23 "/>
</g>
<!-- StudentsController -->
<g id="node16" class="node"><title>StudentsController</title>
<path fill="none" stroke="black" d="M390.485,-1095.65C390.485,-1095.65 499.872,-1095.65 499.872,-1095.65 505.872,-1095.65 511.872,-1101.65 511.872,-1107.65 511.872,-1107.65 511.872,-1333.25 511.872,-1333.25 511.872,-1339.25 505.872,-1345.25 499.872,-1345.25 499.872,-1345.25 390.485,-1345.25 390.485,-1345.25 384.485,-1345.25 378.485,-1339.25 378.485,-1333.25 378.485,-1333.25 378.485,-1107.65 378.485,-1107.65 378.485,-1101.65 384.485,-1095.65 390.485,-1095.65"/>
<text text-anchor="middle" x="445.178" y="-1327.25" font-family="Times,serif" font-size="14.00">StudentsController</text>
<polyline fill="none" stroke="black" points="378.485,-1320.45 511.872,-1320.45 "/>
<text text-anchor="start" x="386.485" y="-1302.45" font-family="Times,serif" font-size="14.00">_callback_before_25</text>
<text text-anchor="start" x="386.485" y="-1285.65" font-family="Times,serif" font-size="14.00">create</text>
<text text-anchor="start" x="386.485" y="-1268.85" font-family="Times,serif" font-size="14.00">destroy</text>
<text text-anchor="start" x="386.485" y="-1252.05" font-family="Times,serif" font-size="14.00">edit</text>
<text text-anchor="start" x="386.485" y="-1235.25" font-family="Times,serif" font-size="14.00">index</text>
<text text-anchor="start" x="386.485" y="-1218.45" font-family="Times,serif" font-size="14.00">new</text>
<text text-anchor="start" x="386.485" y="-1201.65" font-family="Times,serif" font-size="14.00">show</text>
<text text-anchor="start" x="386.485" y="-1184.85" font-family="Times,serif" font-size="14.00">update</text>
<polyline fill="none" stroke="black" points="378.485,-1178.05 511.872,-1178.05 "/>
<polyline fill="none" stroke="black" points="378.485,-1154.05 511.872,-1154.05 "/>
<text text-anchor="start" x="386.485" y="-1136.05" font-family="Times,serif" font-size="14.00">_layout</text>
<text text-anchor="start" x="386.485" y="-1119.25" font-family="Times,serif" font-size="14.00">set_student</text>
<text text-anchor="start" x="386.485" y="-1102.45" font-family="Times,serif" font-size="14.00">student_params</text>
</g>
<!-- ApplicationController&#45;&gt;StudentsController -->
<g id="edge14" class="edge"><title>ApplicationController&#45;&gt;StudentsController</title>
<path fill="none" stroke="black" d="M340.679,-757.421C360.08,-843.386 392.34,-986.331 415.893,-1090.69"/>
<polyline fill="none" stroke="black" points="417.008,-1095.63 415.907,-1090.76 "/>
</g>
<!-- SupervisorsController -->
<g id="node17" class="node"><title>SupervisorsController</title>
<path fill="none" stroke="black" d="M531.593,-521.409C531.593,-521.409 647.248,-521.409 647.248,-521.409 653.248,-521.409 659.248,-527.409 659.248,-533.409 659.248,-533.409 659.248,-775.809 659.248,-775.809 659.248,-781.809 653.248,-787.809 647.248,-787.809 647.248,-787.809 531.593,-787.809 531.593,-787.809 525.593,-787.809 519.593,-781.809 519.593,-775.809 519.593,-775.809 519.593,-533.409 519.593,-533.409 519.593,-527.409 525.593,-521.409 531.593,-521.409"/>
<text text-anchor="middle" x="589.42" y="-769.809" font-family="Times,serif" font-size="14.00">SupervisorsController</text>
<polyline fill="none" stroke="black" points="519.593,-763.009 659.248,-763.009 "/>
<text text-anchor="start" x="527.593" y="-745.009" font-family="Times,serif" font-size="14.00">_callback_before_26</text>
<text text-anchor="start" x="527.593" y="-728.209" font-family="Times,serif" font-size="14.00">approve</text>
<text text-anchor="start" x="527.593" y="-711.409" font-family="Times,serif" font-size="14.00">become_supervisor</text>
<text text-anchor="start" x="527.593" y="-694.609" font-family="Times,serif" font-size="14.00">create</text>
<text text-anchor="start" x="527.593" y="-677.809" font-family="Times,serif" font-size="14.00">destroy</text>
<text text-anchor="start" x="527.593" y="-661.009" font-family="Times,serif" font-size="14.00">index</text>
<text text-anchor="start" x="527.593" y="-644.209" font-family="Times,serif" font-size="14.00">new</text>
<text text-anchor="start" x="527.593" y="-627.409" font-family="Times,serif" font-size="14.00">waiting_approval</text>
<polyline fill="none" stroke="black" points="519.593,-620.609 659.248,-620.609 "/>
<polyline fill="none" stroke="black" points="519.593,-596.609 659.248,-596.609 "/>
<text text-anchor="start" x="527.593" y="-578.609" font-family="Times,serif" font-size="14.00">_layout</text>
<text text-anchor="start" x="527.593" y="-561.809" font-family="Times,serif" font-size="14.00">course_id</text>
<text text-anchor="start" x="527.593" y="-545.009" font-family="Times,serif" font-size="14.00">set_supervisor</text>
<text text-anchor="start" x="527.593" y="-528.209" font-family="Times,serif" font-size="14.00">supervisor_params</text>
</g>
<!-- ApplicationController&#45;&gt;SupervisorsController -->
<g id="edge15" class="edge"><title>ApplicationController&#45;&gt;SupervisorsController</title>
<path fill="none" stroke="black" d="M423.132,-672.368C453.226,-669.154 485.778,-665.678 514.035,-662.66"/>
<polyline fill="none" stroke="black" points="519.26,-662.102 514.288,-662.633 "/>
</g>
</g>
</svg>
