<?xml version="1.0" encoding="UTF-8" standalone="no"?>
<!DOCTYPE svg PUBLIC "-//W3C//DTD SVG 1.1//EN"
 "http://www.w3.org/Graphics/SVG/1.1/DTD/svg11.dtd">
<!-- Generated by graphviz version 2.34.0 (20131026.0416)
 -->
<!-- Title: models_diagram Pages: 1 -->
<svg width="1566pt" height="1670pt"
 viewBox="0.00 0.00 1566.00 1670.00" xmlns="http://www.w3.org/2000/svg" xmlns:xlink="http://www.w3.org/1999/xlink">
<g id="graph0" class="graph" transform="scale(1 1) rotate(0) translate(4 1666)">
<title>models_diagram</title>
<polygon fill="white" stroke="white" points="-4,4 -4,-1666 1562,-1666 1562,4 -4,4"/>
<!-- _diagram_info -->
<g id="node1" class="node"><title>_diagram_info</title>
<text text-anchor="start" x="7.31226" y="-1645" font-family="Times,serif" font-size="13.00">Models diagram</text>
<text text-anchor="start" x="7.31226" y="-1629.4" font-family="Times,serif" font-size="13.00">Date: Feb 19 2014 &#45; 17:15</text>
<text text-anchor="start" x="7.31226" y="-1613.8" font-family="Times,serif" font-size="13.00">Migration version: 20140218012730</text>
<text text-anchor="start" x="7.31226" y="-1598.2" font-family="Times,serif" font-size="13.00">Generated by RailRoady 1.1.1</text>
<text text-anchor="start" x="7.31226" y="-1582.6" font-family="Times,serif" font-size="13.00">http://railroady.prestonlee.com</text>
</g>
<!-- Ability -->
<g id="node2" class="node"><title>Ability</title>
<polygon fill="none" stroke="black" points="233.166,-1437.2 233.166,-1486.8 288.834,-1486.8 288.834,-1437.2 233.166,-1437.2"/>
<text text-anchor="middle" x="261" y="-1468.8" font-family="Times,serif" font-size="14.00">Ability</text>
<polyline fill="none" stroke="black" points="233.166,-1462 288.834,-1462 "/>
<text text-anchor="middle" x="261" y="-1444" font-family="Times,serif" font-size="14.00"> </text>
</g>
<!-- Concentration -->
<g id="node3" class="node"><title>Concentration</title>
<path fill="none" stroke="black" d="M595.439,-913.6C595.439,-913.6 714.561,-913.6 714.561,-913.6 720.561,-913.6 726.561,-919.6 726.561,-925.6 726.561,-925.6 726.561,-1018.4 726.561,-1018.4 726.561,-1024.4 720.561,-1030.4 714.561,-1030.4 714.561,-1030.4 595.439,-1030.4 595.439,-1030.4 589.439,-1030.4 583.439,-1024.4 583.439,-1018.4 583.439,-1018.4 583.439,-925.6 583.439,-925.6 583.439,-919.6 589.439,-913.6 595.439,-913.6"/>
<text text-anchor="middle" x="655" y="-1012.4" font-family="Times,serif" font-size="14.00">Concentration</text>
<polyline fill="none" stroke="black" points="583.439,-1005.6 726.561,-1005.6 "/>
<text text-anchor="start" x="591.439" y="-987.6" font-family="Times,serif" font-size="14.00">id :integer</text>
<text text-anchor="start" x="591.439" y="-970.8" font-family="Times,serif" font-size="14.00">name :string</text>
<text text-anchor="start" x="591.439" y="-954" font-family="Times,serif" font-size="14.00">department_id :integer</text>
<text text-anchor="start" x="591.439" y="-937.2" font-family="Times,serif" font-size="14.00">created_at :datetime</text>
<text text-anchor="start" x="591.439" y="-920.4" font-family="Times,serif" font-size="14.00">updated_at :datetime</text>
</g>
<!-- Course -->
<g id="node5" class="node"><title>Course</title>
<path fill="none" stroke="black" d="M546.933,-513.6C546.933,-513.6 687.067,-513.6 687.067,-513.6 693.067,-513.6 699.067,-519.6 699.067,-525.6 699.067,-525.6 699.067,-702.4 699.067,-702.4 699.067,-708.4 693.067,-714.4 687.067,-714.4 687.067,-714.4 546.933,-714.4 546.933,-714.4 540.933,-714.4 534.933,-708.4 534.933,-702.4 534.933,-702.4 534.933,-525.6 534.933,-525.6 534.933,-519.6 540.933,-513.6 546.933,-513.6"/>
<text text-anchor="middle" x="617" y="-696.4" font-family="Times,serif" font-size="14.00">Course</text>
<polyline fill="none" stroke="black" points="534.933,-689.6 699.067,-689.6 "/>
<text text-anchor="start" x="542.933" y="-671.6" font-family="Times,serif" font-size="14.00">id :integer</text>
<text text-anchor="start" x="542.933" y="-654.8" font-family="Times,serif" font-size="14.00">title :string</text>
<text text-anchor="start" x="542.933" y="-638" font-family="Times,serif" font-size="14.00">description :text</text>
<text text-anchor="start" x="542.933" y="-621.2" font-family="Times,serif" font-size="14.00">concentration_id :integer</text>
<text text-anchor="start" x="542.933" y="-604.4" font-family="Times,serif" font-size="14.00">student_id :integer</text>
<text text-anchor="start" x="542.933" y="-587.6" font-family="Times,serif" font-size="14.00">type :string</text>
<text text-anchor="start" x="542.933" y="-570.8" font-family="Times,serif" font-size="14.00">supervisors_count :integer</text>
<text text-anchor="start" x="542.933" y="-554" font-family="Times,serif" font-size="14.00">created_at :datetime</text>
<text text-anchor="start" x="542.933" y="-537.2" font-family="Times,serif" font-size="14.00">updated_at :datetime</text>
<text text-anchor="start" x="542.933" y="-520.4" font-family="Times,serif" font-size="14.00">feedbacks_count :integer</text>
</g>
<!-- Concentration&#45;&gt;Course -->
<g id="edge2" class="edge"><title>Concentration&#45;&gt;Course</title>
<path fill="none" stroke="#8b1be8" d="M647.994,-905.36C642.6,-854.829 635.024,-783.859 628.713,-724.733"/>
<ellipse fill="none" stroke="#8b1be8" cx="648.428" cy="-909.429" rx="4" ry="4"/>
<polygon fill="#8b1be8" stroke="#8b1be8" points="628.693,-724.541 632.106,-714.119 628.162,-719.569 627.631,-714.597 627.631,-714.597 627.631,-714.597 628.162,-719.569 623.157,-715.075 628.693,-724.541 628.693,-724.541"/>
</g>
<!-- Consultation -->
<g id="node4" class="node"><title>Consultation</title>
<path fill="none" stroke="black" d="M487.929,-0.4C487.929,-0.4 614.071,-0.4 614.071,-0.4 620.071,-0.4 626.071,-6.4 626.071,-12.4 626.071,-12.4 626.071,-155.6 626.071,-155.6 626.071,-161.6 620.071,-167.6 614.071,-167.6 614.071,-167.6 487.929,-167.6 487.929,-167.6 481.929,-167.6 475.929,-161.6 475.929,-155.6 475.929,-155.6 475.929,-12.4 475.929,-12.4 475.929,-6.4 481.929,-0.4 487.929,-0.4"/>
<text text-anchor="middle" x="551" y="-149.6" font-family="Times,serif" font-size="14.00">Consultation</text>
<polyline fill="none" stroke="black" points="475.929,-142.8 626.071,-142.8 "/>
<text text-anchor="start" x="483.929" y="-124.8" font-family="Times,serif" font-size="14.00">id :integer</text>
<text text-anchor="start" x="483.929" y="-108" font-family="Times,serif" font-size="14.00">content :text</text>
<text text-anchor="start" x="483.929" y="-91.2" font-family="Times,serif" font-size="14.00">next_consult :datetime</text>
<text text-anchor="start" x="483.929" y="-74.4" font-family="Times,serif" font-size="14.00">course_id :integer</text>
<text text-anchor="start" x="483.929" y="-57.6" font-family="Times,serif" font-size="14.00">consultable_id :integer</text>
<text text-anchor="start" x="483.929" y="-40.8" font-family="Times,serif" font-size="14.00">consultable_type :string</text>
<text text-anchor="start" x="483.929" y="-24" font-family="Times,serif" font-size="14.00">created_at :datetime</text>
<text text-anchor="start" x="483.929" y="-7.2" font-family="Times,serif" font-size="14.00">updated_at :datetime</text>
</g>
<!-- Course&#45;&gt;Consultation -->
<g id="edge8" class="edge"><title>Course&#45;&gt;Consultation</title>
<path fill="none" stroke="#896fe8" d="M588.844,-505.644C581.604,-474.36 574.575,-439.989 570,-408 558.978,-330.936 554.321,-242.651 552.368,-177.878"/>
<ellipse fill="none" stroke="#896fe8" cx="589.776" cy="-509.632" rx="4.00001" ry="4.00001"/>
<polygon fill="#896fe8" stroke="#896fe8" points="552.363,-177.685 556.576,-167.561 552.22,-172.687 552.077,-167.689 552.077,-167.689 552.077,-167.689 552.22,-172.687 547.579,-167.818 552.363,-177.685 552.363,-177.685"/>
</g>
<!-- Feedback -->
<g id="node8" class="node"><title>Feedback</title>
<path fill="none" stroke="black" d="M1123.49,-231.8C1123.49,-231.8 1232.51,-231.8 1232.51,-231.8 1238.51,-231.8 1244.51,-237.8 1244.51,-243.8 1244.51,-243.8 1244.51,-370.2 1244.51,-370.2 1244.51,-376.2 1238.51,-382.2 1232.51,-382.2 1232.51,-382.2 1123.49,-382.2 1123.49,-382.2 1117.49,-382.2 1111.49,-376.2 1111.49,-370.2 1111.49,-370.2 1111.49,-243.8 1111.49,-243.8 1111.49,-237.8 1117.49,-231.8 1123.49,-231.8"/>
<text text-anchor="middle" x="1178" y="-364.2" font-family="Times,serif" font-size="14.00">Feedback</text>
<polyline fill="none" stroke="black" points="1111.49,-357.4 1244.51,-357.4 "/>
<text text-anchor="start" x="1119.49" y="-339.4" font-family="Times,serif" font-size="14.00">id :integer</text>
<text text-anchor="start" x="1119.49" y="-322.6" font-family="Times,serif" font-size="14.00">content :text</text>
<text text-anchor="start" x="1119.49" y="-305.8" font-family="Times,serif" font-size="14.00">course_id :integer</text>
<text text-anchor="start" x="1119.49" y="-289" font-family="Times,serif" font-size="14.00">userable_id :integer</text>
<text text-anchor="start" x="1119.49" y="-272.2" font-family="Times,serif" font-size="14.00">userable_type :string</text>
<text text-anchor="start" x="1119.49" y="-255.4" font-family="Times,serif" font-size="14.00">created_at :datetime</text>
<text text-anchor="start" x="1119.49" y="-238.6" font-family="Times,serif" font-size="14.00">updated_at :datetime</text>
</g>
<!-- Course&#45;&gt;Feedback -->
<g id="edge7" class="edge"><title>Course&#45;&gt;Feedback</title>
<path fill="none" stroke="#6200ca" d="M705.087,-510.087C731.499,-485.284 762.238,-461.5 795,-446 912.503,-390.407 969.458,-467.562 1085,-408 1094.86,-402.917 1104.22,-396.351 1112.94,-389.014"/>
<ellipse fill="none" stroke="#6200ca" cx="702.065" cy="-512.969" rx="4.00002" ry="4.00002"/>
<polygon fill="#6200ca" stroke="#6200ca" points="1112.94,-389.012 1123.42,-385.756 1116.69,-385.699 1120.43,-382.386 1120.43,-382.386 1120.43,-382.386 1116.69,-385.699 1117.45,-379.015 1112.94,-389.012 1112.94,-389.012"/>
</g>
<!-- Paper -->
<g id="node10" class="node"><title>Paper</title>
<path fill="none" stroke="black" d="M356.943,-215C356.943,-215 511.057,-215 511.057,-215 517.057,-215 523.057,-221 523.057,-227 523.057,-227 523.057,-387 523.057,-387 523.057,-393 517.057,-399 511.057,-399 511.057,-399 356.943,-399 356.943,-399 350.943,-399 344.943,-393 344.943,-387 344.943,-387 344.943,-227 344.943,-227 344.943,-221 350.943,-215 356.943,-215"/>
<text text-anchor="middle" x="434" y="-381" font-family="Times,serif" font-size="14.00">Paper</text>
<polyline fill="none" stroke="black" points="344.943,-374.2 523.057,-374.2 "/>
<text text-anchor="start" x="352.943" y="-356.2" font-family="Times,serif" font-size="14.00">id :integer</text>
<text text-anchor="start" x="352.943" y="-339.4" font-family="Times,serif" font-size="14.00">name :string</text>
<text text-anchor="start" x="352.943" y="-322.6" font-family="Times,serif" font-size="14.00">course_id :integer</text>
<text text-anchor="start" x="352.943" y="-305.8" font-family="Times,serif" font-size="14.00">created_at :datetime</text>
<text text-anchor="start" x="352.943" y="-289" font-family="Times,serif" font-size="14.00">updated_at :datetime</text>
<text text-anchor="start" x="352.943" y="-272.2" font-family="Times,serif" font-size="14.00">bundle_file_name :string</text>
<text text-anchor="start" x="352.943" y="-255.4" font-family="Times,serif" font-size="14.00">bundle_content_type :string</text>
<text text-anchor="start" x="352.943" y="-238.6" font-family="Times,serif" font-size="14.00">bundle_file_size :integer</text>
<text text-anchor="start" x="352.943" y="-221.8" font-family="Times,serif" font-size="14.00">bundle_updated_at :datetime</text>
</g>
<!-- Course&#45;&gt;Paper -->
<g id="edge5" class="edge"><title>Course&#45;&gt;Paper</title>
<path fill="none" stroke="#20254d" d="M553.154,-506.591C533.923,-474.538 512.892,-439.487 493.925,-407.875"/>
<ellipse fill="none" stroke="#20254d" cx="555.274" cy="-510.124" rx="4.00002" ry="4.00002"/>
<polygon fill="#20254d" stroke="#20254d" points="493.778,-407.63 492.492,-396.74 491.205,-403.342 488.633,-399.055 488.633,-399.055 488.633,-399.055 491.205,-403.342 484.774,-401.37 493.778,-407.63 493.778,-407.63"/>
</g>
<!-- Pkl -->
<g id="node11" class="node"><title>Pkl</title>
<path fill="none" stroke="black" d="M590.933,-206.6C590.933,-206.6 731.067,-206.6 731.067,-206.6 737.067,-206.6 743.067,-212.6 743.067,-218.6 743.067,-218.6 743.067,-395.4 743.067,-395.4 743.067,-401.4 737.067,-407.4 731.067,-407.4 731.067,-407.4 590.933,-407.4 590.933,-407.4 584.933,-407.4 578.933,-401.4 578.933,-395.4 578.933,-395.4 578.933,-218.6 578.933,-218.6 578.933,-212.6 584.933,-206.6 590.933,-206.6"/>
<text text-anchor="middle" x="661" y="-389.4" font-family="Times,serif" font-size="14.00">Pkl</text>
<polyline fill="none" stroke="black" points="578.933,-382.6 743.067,-382.6 "/>
<text text-anchor="start" x="586.933" y="-364.6" font-family="Times,serif" font-size="14.00">id :integer</text>
<text text-anchor="start" x="586.933" y="-347.8" font-family="Times,serif" font-size="14.00">title :string</text>
<text text-anchor="start" x="586.933" y="-331" font-family="Times,serif" font-size="14.00">description :text</text>
<text text-anchor="start" x="586.933" y="-314.2" font-family="Times,serif" font-size="14.00">concentration_id :integer</text>
<text text-anchor="start" x="586.933" y="-297.4" font-family="Times,serif" font-size="14.00">student_id :integer</text>
<text text-anchor="start" x="586.933" y="-280.6" font-family="Times,serif" font-size="14.00">type :string</text>
<text text-anchor="start" x="586.933" y="-263.8" font-family="Times,serif" font-size="14.00">supervisors_count :integer</text>
<text text-anchor="start" x="586.933" y="-247" font-family="Times,serif" font-size="14.00">created_at :datetime</text>
<text text-anchor="start" x="586.933" y="-230.2" font-family="Times,serif" font-size="14.00">updated_at :datetime</text>
<text text-anchor="start" x="586.933" y="-213.4" font-family="Times,serif" font-size="14.00">feedbacks_count :integer</text>
</g>
<!-- Course&#45;&gt;Pkl -->
<g id="edge25" class="edge"><title>Course&#45;&gt;Pkl</title>
<path fill="none" stroke="black" d="M631.346,-513.554C636,-481.294 641.176,-445.416 645.884,-412.781"/>
<polyline fill="none" stroke="black" points="646.636,-407.572 645.922,-412.521 "/>
</g>
<!-- Skripsi -->
<g id="node13" class="node"><title>Skripsi</title>
<path fill="none" stroke="black" d="M772.933,-206.6C772.933,-206.6 913.067,-206.6 913.067,-206.6 919.067,-206.6 925.067,-212.6 925.067,-218.6 925.067,-218.6 925.067,-395.4 925.067,-395.4 925.067,-401.4 919.067,-407.4 913.067,-407.4 913.067,-407.4 772.933,-407.4 772.933,-407.4 766.933,-407.4 760.933,-401.4 760.933,-395.4 760.933,-395.4 760.933,-218.6 760.933,-218.6 760.933,-212.6 766.933,-206.6 772.933,-206.6"/>
<text text-anchor="middle" x="843" y="-389.4" font-family="Times,serif" font-size="14.00">Skripsi</text>
<polyline fill="none" stroke="black" points="760.933,-382.6 925.067,-382.6 "/>
<text text-anchor="start" x="768.933" y="-364.6" font-family="Times,serif" font-size="14.00">id :integer</text>
<text text-anchor="start" x="768.933" y="-347.8" font-family="Times,serif" font-size="14.00">title :string</text>
<text text-anchor="start" x="768.933" y="-331" font-family="Times,serif" font-size="14.00">description :text</text>
<text text-anchor="start" x="768.933" y="-314.2" font-family="Times,serif" font-size="14.00">concentration_id :integer</text>
<text text-anchor="start" x="768.933" y="-297.4" font-family="Times,serif" font-size="14.00">student_id :integer</text>
<text text-anchor="start" x="768.933" y="-280.6" font-family="Times,serif" font-size="14.00">type :string</text>
<text text-anchor="start" x="768.933" y="-263.8" font-family="Times,serif" font-size="14.00">supervisors_count :integer</text>
<text text-anchor="start" x="768.933" y="-247" font-family="Times,serif" font-size="14.00">created_at :datetime</text>
<text text-anchor="start" x="768.933" y="-230.2" font-family="Times,serif" font-size="14.00">updated_at :datetime</text>
<text text-anchor="start" x="768.933" y="-213.4" font-family="Times,serif" font-size="14.00">feedbacks_count :integer</text>
</g>
<!-- Course&#45;&gt;Skripsi -->
<g id="edge27" class="edge"><title>Course&#45;&gt;Skripsi</title>
<path fill="none" stroke="black" d="M674.785,-513.519C692.948,-484.513 713.82,-453.297 735,-426 741.746,-417.306 744.519,-416.07 752,-408 753.706,-406.16 755.427,-404.3 757.161,-402.424"/>
<polyline fill="none" stroke="black" points="760.735,-398.552 757.343,-402.226 "/>
</g>
<!-- Supervisor -->
<g id="node16" class="node"><title>Supervisor</title>
<path fill="none" stroke="black" d="M955.488,-223.4C955.488,-223.4 1064.51,-223.4 1064.51,-223.4 1070.51,-223.4 1076.51,-229.4 1076.51,-235.4 1076.51,-235.4 1076.51,-378.6 1076.51,-378.6 1076.51,-384.6 1070.51,-390.6 1064.51,-390.6 1064.51,-390.6 955.488,-390.6 955.488,-390.6 949.488,-390.6 943.488,-384.6 943.488,-378.6 943.488,-378.6 943.488,-235.4 943.488,-235.4 943.488,-229.4 949.488,-223.4 955.488,-223.4"/>
<text text-anchor="middle" x="1010" y="-372.6" font-family="Times,serif" font-size="14.00">Supervisor</text>
<polyline fill="none" stroke="black" points="943.488,-365.8 1076.51,-365.8 "/>
<text text-anchor="start" x="951.488" y="-347.8" font-family="Times,serif" font-size="14.00">id :integer</text>
<text text-anchor="start" x="951.488" y="-331" font-family="Times,serif" font-size="14.00">course_id :integer</text>
<text text-anchor="start" x="951.488" y="-314.2" font-family="Times,serif" font-size="14.00">lecturer_id :integer</text>
<text text-anchor="start" x="951.488" y="-297.4" font-family="Times,serif" font-size="14.00">approved :boolean</text>
<text text-anchor="start" x="951.488" y="-280.6" font-family="Times,serif" font-size="14.00">userable_type :string</text>
<text text-anchor="start" x="951.488" y="-263.8" font-family="Times,serif" font-size="14.00">userable_id :integer</text>
<text text-anchor="start" x="951.488" y="-247" font-family="Times,serif" font-size="14.00">created_at :datetime</text>
<text text-anchor="start" x="951.488" y="-230.2" font-family="Times,serif" font-size="14.00">updated_at :datetime</text>
</g>
<!-- Course&#45;&gt;Supervisor -->
<g id="edge6" class="edge"><title>Course&#45;&gt;Supervisor</title>
<path fill="none" stroke="#9a7f77" d="M698.825,-507.318C728.297,-476.257 764.002,-445.434 803,-426 855.6,-399.788 883.256,-437.646 934,-408 939.187,-404.97 944.137,-401.434 948.842,-397.536"/>
<ellipse fill="none" stroke="#9a7f77" cx="695.747" cy="-510.609" rx="4.00002" ry="4.00002"/>
<polygon fill="#9a7f77" stroke="#9a7f77" points="949.074,-397.328 959.527,-394.014 952.8,-393.994 956.527,-390.66 956.527,-390.66 956.527,-390.66 952.8,-393.994 953.526,-387.307 949.074,-397.328 949.074,-397.328"/>
</g>
<!-- Department -->
<g id="node6" class="node"><title>Department</title>
<path fill="none" stroke="black" d="M854.001,-1163C854.001,-1163 1012,-1163 1012,-1163 1018,-1163 1024,-1169 1024,-1175 1024,-1175 1024,-1335 1024,-1335 1024,-1341 1018,-1347 1012,-1347 1012,-1347 854.001,-1347 854.001,-1347 848.001,-1347 842.001,-1341 842.001,-1335 842.001,-1335 842.001,-1175 842.001,-1175 842.001,-1169 848.001,-1163 854.001,-1163"/>
<text text-anchor="middle" x="933" y="-1329" font-family="Times,serif" font-size="14.00">Department</text>
<polyline fill="none" stroke="black" points="842.001,-1322.2 1024,-1322.2 "/>
<text text-anchor="start" x="850.001" y="-1304.2" font-family="Times,serif" font-size="14.00">id :integer</text>
<text text-anchor="start" x="850.001" y="-1287.4" font-family="Times,serif" font-size="14.00">name :string</text>
<text text-anchor="start" x="850.001" y="-1270.6" font-family="Times,serif" font-size="14.00">website :text</text>
<text text-anchor="start" x="850.001" y="-1253.8" font-family="Times,serif" font-size="14.00">faculty_id :integer</text>
<text text-anchor="start" x="850.001" y="-1237" font-family="Times,serif" font-size="14.00">students_count :integer</text>
<text text-anchor="start" x="850.001" y="-1220.2" font-family="Times,serif" font-size="14.00">lecturers_count :integer</text>
<text text-anchor="start" x="850.001" y="-1203.4" font-family="Times,serif" font-size="14.00">created_at :datetime</text>
<text text-anchor="start" x="850.001" y="-1186.6" font-family="Times,serif" font-size="14.00">updated_at :datetime</text>
<text text-anchor="start" x="850.001" y="-1169.8" font-family="Times,serif" font-size="14.00">concentrations_count :integer</text>
</g>
<!-- Department&#45;&gt;Concentration -->
<g id="edge10" class="edge"><title>Department&#45;&gt;Concentration</title>
<path fill="none" stroke="#b68585" d="M835.095,-1203.26C800.542,-1182.05 763.288,-1155.07 735,-1124 712.84,-1099.66 694.861,-1068.05 681.601,-1040.05"/>
<ellipse fill="none" stroke="#b68585" cx="838.546" cy="-1205.35" rx="4.00002" ry="4.00002"/>
<polygon fill="#b68585" stroke="#b68585" points="681.479,-1039.78 681.372,-1028.82 679.383,-1035.25 677.286,-1030.71 677.286,-1030.71 677.286,-1030.71 679.383,-1035.25 673.201,-1032.59 681.479,-1039.78 681.479,-1039.78"/>
</g>
<!-- Lecturer -->
<g id="node9" class="node"><title>Lecturer</title>
<path fill="none" stroke="black" d="M917.764,-821.2C917.764,-821.2 1102.24,-821.2 1102.24,-821.2 1108.24,-821.2 1114.24,-827.2 1114.24,-833.2 1114.24,-833.2 1114.24,-1110.8 1114.24,-1110.8 1114.24,-1116.8 1108.24,-1122.8 1102.24,-1122.8 1102.24,-1122.8 917.764,-1122.8 917.764,-1122.8 911.764,-1122.8 905.764,-1116.8 905.764,-1110.8 905.764,-1110.8 905.764,-833.2 905.764,-833.2 905.764,-827.2 911.764,-821.2 917.764,-821.2"/>
<text text-anchor="middle" x="1010" y="-1104.8" font-family="Times,serif" font-size="14.00">Lecturer</text>
<polyline fill="none" stroke="black" points="905.764,-1098 1114.24,-1098 "/>
<text text-anchor="start" x="913.764" y="-1080" font-family="Times,serif" font-size="14.00">id :integer</text>
<text text-anchor="start" x="913.764" y="-1063.2" font-family="Times,serif" font-size="14.00">nip :string</text>
<text text-anchor="start" x="913.764" y="-1046.4" font-family="Times,serif" font-size="14.00">nid :string</text>
<text text-anchor="start" x="913.764" y="-1029.6" font-family="Times,serif" font-size="14.00">full_name :string</text>
<text text-anchor="start" x="913.764" y="-1012.8" font-family="Times,serif" font-size="14.00">address :text</text>
<text text-anchor="start" x="913.764" y="-996" font-family="Times,serif" font-size="14.00">born :date</text>
<text text-anchor="start" x="913.764" y="-979.2" font-family="Times,serif" font-size="14.00">level :string</text>
<text text-anchor="start" x="913.764" y="-962.4" font-family="Times,serif" font-size="14.00">front_title :string</text>
<text text-anchor="start" x="913.764" y="-945.6" font-family="Times,serif" font-size="14.00">back_title :string</text>
<text text-anchor="start" x="913.764" y="-928.8" font-family="Times,serif" font-size="14.00">is_admin :boolean</text>
<text text-anchor="start" x="913.764" y="-912" font-family="Times,serif" font-size="14.00">department_id :integer</text>
<text text-anchor="start" x="913.764" y="-895.2" font-family="Times,serif" font-size="14.00">created_at :datetime</text>
<text text-anchor="start" x="913.764" y="-878.4" font-family="Times,serif" font-size="14.00">updated_at :datetime</text>
<text text-anchor="start" x="913.764" y="-861.6" font-family="Times,serif" font-size="14.00">supervisors_count :integer</text>
<text text-anchor="start" x="913.764" y="-844.8" font-family="Times,serif" font-size="14.00">supervisors_pkl_count :integer</text>
<text text-anchor="start" x="913.764" y="-828" font-family="Times,serif" font-size="14.00">supervisors_skripsi_count :integer</text>
</g>
<!-- Department&#45;&gt;Lecturer -->
<g id="edge12" class="edge"><title>Department&#45;&gt;Lecturer</title>
<path fill="none" stroke="#aedfc7" d="M960.161,-1154.88C962.143,-1147.65 964.168,-1140.26 966.215,-1132.79"/>
<ellipse fill="none" stroke="#aedfc7" cx="959.057" cy="-1158.91" rx="4.00001" ry="4.00001"/>
<polygon fill="#aedfc7" stroke="#aedfc7" points="966.272,-1132.58 973.255,-1124.12 967.593,-1127.76 968.915,-1122.94 968.915,-1122.94 968.915,-1122.94 967.593,-1127.76 964.575,-1121.75 966.272,-1132.58 966.272,-1132.58"/>
</g>
<!-- Setting -->
<g id="node12" class="node"><title>Setting</title>
<path fill="none" stroke="black" d="M1144.46,-829.6C1144.46,-829.6 1403.54,-829.6 1403.54,-829.6 1409.54,-829.6 1415.54,-835.6 1415.54,-841.6 1415.54,-841.6 1415.54,-1102.4 1415.54,-1102.4 1415.54,-1108.4 1409.54,-1114.4 1403.54,-1114.4 1403.54,-1114.4 1144.46,-1114.4 1144.46,-1114.4 1138.46,-1114.4 1132.46,-1108.4 1132.46,-1102.4 1132.46,-1102.4 1132.46,-841.6 1132.46,-841.6 1132.46,-835.6 1138.46,-829.6 1144.46,-829.6"/>
<text text-anchor="middle" x="1274" y="-1096.4" font-family="Times,serif" font-size="14.00">Setting</text>
<polyline fill="none" stroke="black" points="1132.46,-1089.6 1415.54,-1089.6 "/>
<text text-anchor="start" x="1140.46" y="-1071.6" font-family="Times,serif" font-size="14.00">id :integer</text>
<text text-anchor="start" x="1140.46" y="-1054.8" font-family="Times,serif" font-size="14.00">supervisor_skripsi_amount :integer</text>
<text text-anchor="start" x="1140.46" y="-1038" font-family="Times,serif" font-size="14.00">supervisor_pkl_amount :integer</text>
<text text-anchor="start" x="1140.46" y="-1021.2" font-family="Times,serif" font-size="14.00">examiner_amount :integer</text>
<text text-anchor="start" x="1140.46" y="-1004.4" font-family="Times,serif" font-size="14.00">maximum_lecturer_lektor_skripsi_lead :integer</text>
<text text-anchor="start" x="1140.46" y="-987.6" font-family="Times,serif" font-size="14.00">maximum_lecturer_aa_skripsi_lead :integer</text>
<text text-anchor="start" x="1140.46" y="-970.8" font-family="Times,serif" font-size="14.00">allow_remove_supervisor_duration :integer</text>
<text text-anchor="start" x="1140.46" y="-954" font-family="Times,serif" font-size="14.00">lecturer_lead_skripsi_rule :string</text>
<text text-anchor="start" x="1140.46" y="-937.2" font-family="Times,serif" font-size="14.00">lecturer_lead_pkl_rule :string</text>
<text text-anchor="start" x="1140.46" y="-920.4" font-family="Times,serif" font-size="14.00">allow_student_create_pkl :boolean</text>
<text text-anchor="start" x="1140.46" y="-903.6" font-family="Times,serif" font-size="14.00">department_id :integer</text>
<text text-anchor="start" x="1140.46" y="-886.8" font-family="Times,serif" font-size="14.00">created_at :datetime</text>
<text text-anchor="start" x="1140.46" y="-870" font-family="Times,serif" font-size="14.00">updated_at :datetime</text>
<text text-anchor="start" x="1140.46" y="-853.2" font-family="Times,serif" font-size="14.00">maximum_lecturer_lektor_pkl_lead :integer</text>
<text text-anchor="start" x="1140.46" y="-836.4" font-family="Times,serif" font-size="14.00">maximum_lecturer_aa_pkl_lead :integer</text>
</g>
<!-- Department&#45;&gt;Setting -->
<g id="edge13" class="edge"><title>Department&#45;&gt;Setting</title>
<path fill="none" stroke="#427fcd" d="M1031.24,-1191.86C1061.52,-1171.37 1094.41,-1147.73 1123,-1124 1124.62,-1122.65 1126.25,-1121.29 1127.87,-1119.92"/>
<ellipse fill="none" stroke="#427fcd" cx="1027.73" cy="-1194.21" rx="4.00002" ry="4.00002"/>
<ellipse fill="#427fcd" stroke="#427fcd" cx="1131.11" cy="-1117.15" rx="4.00002" ry="4.00002"/>
</g>
<!-- Student -->
<g id="node15" class="node"><title>Student</title>
<path fill="none" stroke="black" d="M756.426,-863.2C756.426,-863.2 875.574,-863.2 875.574,-863.2 881.574,-863.2 887.574,-869.2 887.574,-875.2 887.574,-875.2 887.574,-1068.8 887.574,-1068.8 887.574,-1074.8 881.574,-1080.8 875.574,-1080.8 875.574,-1080.8 756.426,-1080.8 756.426,-1080.8 750.426,-1080.8 744.426,-1074.8 744.426,-1068.8 744.426,-1068.8 744.426,-875.2 744.426,-875.2 744.426,-869.2 750.426,-863.2 756.426,-863.2"/>
<text text-anchor="middle" x="816" y="-1062.8" font-family="Times,serif" font-size="14.00">Student</text>
<polyline fill="none" stroke="black" points="744.426,-1056 887.574,-1056 "/>
<text text-anchor="start" x="752.426" y="-1038" font-family="Times,serif" font-size="14.00">id :integer</text>
<text text-anchor="start" x="752.426" y="-1021.2" font-family="Times,serif" font-size="14.00">nim :string</text>
<text text-anchor="start" x="752.426" y="-1004.4" font-family="Times,serif" font-size="14.00">full_name :string</text>
<text text-anchor="start" x="752.426" y="-987.6" font-family="Times,serif" font-size="14.00">address :text</text>
<text text-anchor="start" x="752.426" y="-970.8" font-family="Times,serif" font-size="14.00">born :date</text>
<text text-anchor="start" x="752.426" y="-954" font-family="Times,serif" font-size="14.00">student_since :date</text>
<text text-anchor="start" x="752.426" y="-937.2" font-family="Times,serif" font-size="14.00">department_id :integer</text>
<text text-anchor="start" x="752.426" y="-920.4" font-family="Times,serif" font-size="14.00">pkls_count :integer</text>
<text text-anchor="start" x="752.426" y="-903.6" font-family="Times,serif" font-size="14.00">skripsis_count :integer</text>
<text text-anchor="start" x="752.426" y="-886.8" font-family="Times,serif" font-size="14.00">created_at :datetime</text>
<text text-anchor="start" x="752.426" y="-870" font-family="Times,serif" font-size="14.00">updated_at :datetime</text>
</g>
<!-- Department&#45;&gt;Student -->
<g id="edge11" class="edge"><title>Department&#45;&gt;Student</title>
<path fill="none" stroke="#7f15b2" d="M892.513,-1155.3C890.652,-1150.8 888.808,-1146.35 887,-1142 880.098,-1125.39 872.783,-1107.87 865.572,-1090.66"/>
<ellipse fill="none" stroke="#7f15b2" cx="894.126" cy="-1159.2" rx="4.00001" ry="4.00001"/>
<polygon fill="#7f15b2" stroke="#7f15b2" points="865.446,-1090.36 865.731,-1079.39 863.513,-1085.74 861.58,-1081.13 861.58,-1081.13 861.58,-1081.13 863.513,-1085.74 857.43,-1082.87 865.446,-1090.36 865.446,-1090.36"/>
</g>
<!-- Faculty -->
<g id="node7" class="node"><title>Faculty</title>
<path fill="none" stroke="black" d="M1091.61,-1386.8C1091.61,-1386.8 1236.39,-1386.8 1236.39,-1386.8 1242.39,-1386.8 1248.39,-1392.8 1248.39,-1398.8 1248.39,-1398.8 1248.39,-1525.2 1248.39,-1525.2 1248.39,-1531.2 1242.39,-1537.2 1236.39,-1537.2 1236.39,-1537.2 1091.61,-1537.2 1091.61,-1537.2 1085.61,-1537.2 1079.61,-1531.2 1079.61,-1525.2 1079.61,-1525.2 1079.61,-1398.8 1079.61,-1398.8 1079.61,-1392.8 1085.61,-1386.8 1091.61,-1386.8"/>
<text text-anchor="middle" x="1164" y="-1519.2" font-family="Times,serif" font-size="14.00">Faculty</text>
<polyline fill="none" stroke="black" points="1079.61,-1512.4 1248.39,-1512.4 "/>
<text text-anchor="start" x="1087.61" y="-1494.4" font-family="Times,serif" font-size="14.00">id :integer</text>
<text text-anchor="start" x="1087.61" y="-1477.6" font-family="Times,serif" font-size="14.00">name :string</text>
<text text-anchor="start" x="1087.61" y="-1460.8" font-family="Times,serif" font-size="14.00">website :string</text>
<text text-anchor="start" x="1087.61" y="-1444" font-family="Times,serif" font-size="14.00">departments_count :integer</text>
<text text-anchor="start" x="1087.61" y="-1427.2" font-family="Times,serif" font-size="14.00">staffs_count :integer</text>
<text text-anchor="start" x="1087.61" y="-1410.4" font-family="Times,serif" font-size="14.00">created_at :datetime</text>
<text text-anchor="start" x="1087.61" y="-1393.6" font-family="Times,serif" font-size="14.00">updated_at :datetime</text>
</g>
<!-- Faculty&#45;&gt;Department -->
<g id="edge15" class="edge"><title>Faculty&#45;&gt;Department</title>
<path fill="none" stroke="#608430" d="M1074.27,-1381.37C1060.41,-1369.07 1046.04,-1356.32 1032,-1343.86"/>
<ellipse fill="none" stroke="#608430" cx="1077.29" cy="-1384.05" rx="4.00002" ry="4.00002"/>
<polygon fill="#608430" stroke="#608430" points="1031.72,-1343.61 1027.23,-1333.61 1027.98,-1340.29 1024.24,-1336.97 1024.24,-1336.97 1024.24,-1336.97 1027.98,-1340.29 1021.26,-1340.34 1031.72,-1343.61 1031.72,-1343.61"/>
</g>
<!-- Staff -->
<g id="node14" class="node"><title>Staff</title>
<path fill="none" stroke="black" d="M1370.49,-1171.4C1370.49,-1171.4 1479.51,-1171.4 1479.51,-1171.4 1485.51,-1171.4 1491.51,-1177.4 1491.51,-1183.4 1491.51,-1183.4 1491.51,-1326.6 1491.51,-1326.6 1491.51,-1332.6 1485.51,-1338.6 1479.51,-1338.6 1479.51,-1338.6 1370.49,-1338.6 1370.49,-1338.6 1364.49,-1338.6 1358.49,-1332.6 1358.49,-1326.6 1358.49,-1326.6 1358.49,-1183.4 1358.49,-1183.4 1358.49,-1177.4 1364.49,-1171.4 1370.49,-1171.4"/>
<text text-anchor="middle" x="1425" y="-1320.6" font-family="Times,serif" font-size="14.00">Staff</text>
<polyline fill="none" stroke="black" points="1358.49,-1313.8 1491.51,-1313.8 "/>
<text text-anchor="start" x="1366.49" y="-1295.8" font-family="Times,serif" font-size="14.00">id :integer</text>
<text text-anchor="start" x="1366.49" y="-1279" font-family="Times,serif" font-size="14.00">full_name :string</text>
<text text-anchor="start" x="1366.49" y="-1262.2" font-family="Times,serif" font-size="14.00">address :text</text>
<text text-anchor="start" x="1366.49" y="-1245.4" font-family="Times,serif" font-size="14.00">born :date</text>
<text text-anchor="start" x="1366.49" y="-1228.6" font-family="Times,serif" font-size="14.00">staff_since :date</text>
<text text-anchor="start" x="1366.49" y="-1211.8" font-family="Times,serif" font-size="14.00">faculty_id :integer</text>
<text text-anchor="start" x="1366.49" y="-1195" font-family="Times,serif" font-size="14.00">created_at :datetime</text>
<text text-anchor="start" x="1366.49" y="-1178.2" font-family="Times,serif" font-size="14.00">updated_at :datetime</text>
</g>
<!-- Faculty&#45;&gt;Staff -->
<g id="edge16" class="edge"><title>Faculty&#45;&gt;Staff</title>
<path fill="none" stroke="#751e76" d="M1255.04,-1389.49C1286.14,-1365.06 1320.54,-1338.05 1350.21,-1314.74"/>
<ellipse fill="none" stroke="#751e76" cx="1251.88" cy="-1391.97" rx="4.00002" ry="4.00002"/>
<polygon fill="#751e76" stroke="#751e76" points="1350.58,-1314.45 1361.23,-1311.81 1354.51,-1311.36 1358.45,-1308.27 1358.45,-1308.27 1358.45,-1308.27 1354.51,-1311.36 1355.67,-1304.74 1350.58,-1314.45 1350.58,-1314.45"/>
</g>
<!-- Lecturer&#45;&gt;Feedback -->
<g id="edge22" class="edge"><title>Lecturer&#45;&gt;Feedback</title>
<path fill="none" stroke="#c82732" d="M1120.85,-821.638C1121.56,-821.086 1122.28,-820.54 1123,-820 1141.23,-806.328 1157.89,-820.634 1171,-802 1215.82,-738.288 1200.56,-516.283 1187.92,-392.693"/>
<ellipse fill="none" stroke="#c82732" cx="1117.59" cy="-824.247" rx="4.00002" ry="4.00002"/>
<polygon fill="#c82732" stroke="#c82732" points="1187.89,-392.455 1191.33,-382.043 1187.37,-387.482 1186.86,-382.508 1186.86,-382.508 1186.86,-382.508 1187.37,-387.482 1182.38,-382.974 1187.89,-392.455 1187.89,-392.455"/>
</g>
<!-- Lecturer&#45;&gt;Supervisor -->
<g id="edge20" class="edge"><title>Lecturer&#45;&gt;Supervisor</title>
<path fill="none" stroke="#55c982" d="M990.236,-813.007C989.349,-802.525 988.587,-792.118 988,-782 979.352,-632.917 976.208,-594.867 988,-446 989.152,-431.459 990.976,-416.136 993.094,-401.2"/>
<ellipse fill="none" stroke="#55c982" cx="990.589" cy="-817.048" rx="4" ry="4"/>
<polygon fill="#55c982" stroke="#55c982" points="993.148,-400.83 999.054,-391.591 993.875,-395.883 994.602,-390.937 994.602,-390.937 994.602,-390.937 993.875,-395.883 990.149,-390.282 993.148,-400.83 993.148,-400.83"/>
</g>
<!-- Lecturer&#45;&gt;Supervisor -->
<g id="edge21" class="edge"><title>Lecturer&#45;&gt;Supervisor</title>
<path fill="none" stroke="#da8b02" d="M1010,-812.709C1010,-684.249 1010,-507.533 1010,-400.893"/>
<ellipse fill="none" stroke="#da8b02" cx="1010" cy="-816.969" rx="4" ry="4"/>
<polygon fill="#da8b02" stroke="#da8b02" points="1010,-400.796 1014.5,-390.796 1010,-395.796 1010,-390.796 1010,-390.796 1010,-390.796 1010,-395.796 1005.5,-390.796 1010,-400.796 1010,-400.796"/>
<text text-anchor="middle" x="1069.49" y="-608.4" font-family="Times,serif" font-size="14.00">assigned_supervisors</text>
</g>
<!-- User -->
<g id="node17" class="node"><title>User</title>
<path fill="none" stroke="black" d="M1234.72,-446.4C1234.72,-446.4 1415.28,-446.4 1415.28,-446.4 1421.28,-446.4 1427.28,-452.4 1427.28,-458.4 1427.28,-458.4 1427.28,-769.6 1427.28,-769.6 1427.28,-775.6 1421.28,-781.6 1415.28,-781.6 1415.28,-781.6 1234.72,-781.6 1234.72,-781.6 1228.72,-781.6 1222.72,-775.6 1222.72,-769.6 1222.72,-769.6 1222.72,-458.4 1222.72,-458.4 1222.72,-452.4 1228.72,-446.4 1234.72,-446.4"/>
<text text-anchor="middle" x="1325" y="-763.6" font-family="Times,serif" font-size="14.00">User</text>
<polyline fill="none" stroke="black" points="1222.72,-756.8 1427.28,-756.8 "/>
<text text-anchor="start" x="1230.72" y="-738.8" font-family="Times,serif" font-size="14.00">id :integer</text>
<text text-anchor="start" x="1230.72" y="-722" font-family="Times,serif" font-size="14.00">email :string</text>
<text text-anchor="start" x="1230.72" y="-705.2" font-family="Times,serif" font-size="14.00">username :string</text>
<text text-anchor="start" x="1230.72" y="-688.4" font-family="Times,serif" font-size="14.00">primary_identification :string</text>
<text text-anchor="start" x="1230.72" y="-671.6" font-family="Times,serif" font-size="14.00">secondary_identification :string</text>
<text text-anchor="start" x="1230.72" y="-654.8" font-family="Times,serif" font-size="14.00">encrypted_password :string</text>
<text text-anchor="start" x="1230.72" y="-638" font-family="Times,serif" font-size="14.00">reset_password_token :string</text>
<text text-anchor="start" x="1230.72" y="-621.2" font-family="Times,serif" font-size="14.00">reset_password_sent_at :datetime</text>
<text text-anchor="start" x="1230.72" y="-604.4" font-family="Times,serif" font-size="14.00">remember_created_at :datetime</text>
<text text-anchor="start" x="1230.72" y="-587.6" font-family="Times,serif" font-size="14.00">sign_in_count :integer</text>
<text text-anchor="start" x="1230.72" y="-570.8" font-family="Times,serif" font-size="14.00">current_sign_in_at :datetime</text>
<text text-anchor="start" x="1230.72" y="-554" font-family="Times,serif" font-size="14.00">last_sign_in_at :datetime</text>
<text text-anchor="start" x="1230.72" y="-537.2" font-family="Times,serif" font-size="14.00">current_sign_in_ip :string</text>
<text text-anchor="start" x="1230.72" y="-520.4" font-family="Times,serif" font-size="14.00">last_sign_in_ip :string</text>
<text text-anchor="start" x="1230.72" y="-503.6" font-family="Times,serif" font-size="14.00">userable_type :string</text>
<text text-anchor="start" x="1230.72" y="-486.8" font-family="Times,serif" font-size="14.00">userable_id :integer</text>
<text text-anchor="start" x="1230.72" y="-470" font-family="Times,serif" font-size="14.00">created_at :datetime</text>
<text text-anchor="start" x="1230.72" y="-453.2" font-family="Times,serif" font-size="14.00">updated_at :datetime</text>
</g>
<!-- Lecturer&#45;&gt;User -->
<g id="edge19" class="edge"><title>Lecturer&#45;&gt;User</title>
<path fill="none" stroke="#5e00ca" d="M1121.06,-821.161C1121.71,-820.769 1122.35,-820.382 1123,-820 1173.63,-790.166 1208.02,-838.598 1254,-802 1259.37,-797.726 1264.34,-792.996 1268.92,-787.908"/>
<ellipse fill="none" stroke="#5e00ca" cx="1117.63" cy="-823.383" rx="4.00002" ry="4.00002"/>
<ellipse fill="#5e00ca" stroke="#5e00ca" cx="1271.55" cy="-784.823" rx="4.00002" ry="4.00002"/>
</g>
<!-- Staff&#45;&gt;User -->
<g id="edge28" class="edge"><title>Staff&#45;&gt;User</title>
<path fill="none" stroke="#b0413b" d="M1436.4,-1163.01C1444.81,-1074.26 1450.7,-936.067 1424,-820 1421.67,-809.871 1418.77,-799.66 1415.45,-789.491"/>
<ellipse fill="none" stroke="#b0413b" cx="1435.99" cy="-1167.19" rx="4" ry="4"/>
<ellipse fill="#b0413b" stroke="#b0413b" cx="1414.11" cy="-785.514" rx="4.00001" ry="4.00001"/>
</g>
<!-- Student&#45;&gt;Course -->
<g id="edge31" class="edge"><title>Student&#45;&gt;Course</title>
<path fill="none" stroke="#3d6582" d="M760.494,-855.843C752.628,-843.271 744.093,-831.046 735,-820 726.971,-810.246 720.941,-811.826 713,-802 694.041,-778.539 677.316,-750.734 663.36,-723.835"/>
<ellipse fill="none" stroke="#3d6582" cx="762.704" cy="-859.447" rx="4.00002" ry="4.00002"/>
<polygon fill="#3d6582" stroke="#3d6582" points="663.274,-723.665 662.744,-712.712 661.004,-719.21 658.734,-714.755 658.734,-714.755 658.734,-714.755 661.004,-719.21 654.725,-716.798 663.274,-723.665 663.274,-723.665"/>
</g>
<!-- Student&#45;&gt;Feedback -->
<g id="edge35" class="edge"><title>Student&#45;&gt;Feedback</title>
<path fill="none" stroke="#1d41bd" d="M862.303,-856.119C871.987,-842.273 883.469,-829.647 897,-820 983.148,-758.58 1059.6,-859.152 1132,-782 1158.03,-754.264 1170.4,-521.489 1175.31,-392.776"/>
<ellipse fill="none" stroke="#1d41bd" cx="859.918" cy="-859.683" rx="4.00002" ry="4.00002"/>
<polygon fill="#1d41bd" stroke="#1d41bd" points="1175.32,-392.547 1180.19,-382.722 1175.5,-387.55 1175.69,-382.554 1175.69,-382.554 1175.69,-382.554 1175.5,-387.55 1171.19,-382.386 1175.32,-392.547 1175.32,-392.547"/>
</g>
<!-- Student&#45;&gt;Pkl -->
<g id="edge33" class="edge"><title>Student&#45;&gt;Pkl</title>
<path fill="none" stroke="#cbbb29" d="M792.032,-854.933C787.059,-830.827 781.855,-805.586 777,-782 746.262,-632.681 747.987,-593.112 708,-446 705.436,-436.566 702.575,-426.838 699.567,-417.118"/>
<ellipse fill="none" stroke="#cbbb29" cx="792.9" cy="-859.143" rx="4.00001" ry="4.00001"/>
<polygon fill="#cbbb29" stroke="#cbbb29" points="699.515,-416.952 700.807,-406.063 698.014,-412.183 696.514,-407.413 696.514,-407.413 696.514,-407.413 698.014,-412.183 692.221,-408.763 699.515,-416.952 699.515,-416.952"/>
</g>
<!-- Student&#45;&gt;Skripsi -->
<g id="edge32" class="edge"><title>Student&#45;&gt;Skripsi</title>
<path fill="none" stroke="#50780a" d="M797.7,-854.844C784.067,-747.876 771.489,-585.161 795,-446 796.584,-436.625 798.733,-427.038 801.247,-417.501"/>
<ellipse fill="none" stroke="#50780a" cx="798.254" cy="-859.122" rx="4.00001" ry="4.00001"/>
<polygon fill="#50780a" stroke="#50780a" points="801.323,-417.228 808.329,-408.792 802.657,-412.41 803.992,-407.591 803.992,-407.591 803.992,-407.591 802.657,-412.41 799.655,-406.39 801.323,-417.228 801.323,-417.228"/>
</g>
<!-- Student&#45;&gt;Supervisor -->
<g id="edge34" class="edge"><title>Student&#45;&gt;Supervisor</title>
<path fill="none" stroke="#78ae34" d="M812.024,-854.711C809.66,-720.605 813.463,-510.328 857.014,-446 878.405,-414.403 904.564,-432.28 934,-408 937.696,-404.952 941.316,-401.69 944.848,-398.274"/>
<ellipse fill="none" stroke="#78ae34" cx="812.105" cy="-859.033" rx="4" ry="4"/>
<polygon fill="#78ae34" stroke="#78ae34" points="944.941,-398.18 955.17,-394.228 948.455,-394.623 951.969,-391.066 951.969,-391.066 951.969,-391.066 948.455,-394.623 948.767,-387.903 944.941,-398.18 944.941,-398.18"/>
<text text-anchor="middle" x="916.493" y="-608.4" font-family="Times,serif" font-size="14.00">assigned_supervisors</text>
</g>
<!-- Student&#45;&gt;User -->
<g id="edge30" class="edge"><title>Student&#45;&gt;User</title>
<path fill="none" stroke="#0d7ef2" d="M860.818,-855.874C870.756,-841.822 882.705,-829.203 897,-820 948.306,-786.968 1116.7,-829.838 1171,-802 1187.37,-793.606 1202.65,-782.619 1216.72,-770.171"/>
<ellipse fill="none" stroke="#0d7ef2" cx="858.334" cy="-859.561" rx="4.00002" ry="4.00002"/>
<ellipse fill="#0d7ef2" stroke="#0d7ef2" cx="1219.72" cy="-767.442" rx="4.00002" ry="4.00002"/>
</g>
<!-- Supervisor&#45;&gt;Consultation -->
<g id="edge37" class="edge"><title>Supervisor&#45;&gt;Consultation</title>
<path fill="none" stroke="#740832" d="M948.162,-217.465C943.63,-213.317 938.903,-209.452 934,-206 843.688,-142.412 718.513,-111.19 636.188,-96.6251"/>
<ellipse fill="none" stroke="#740832" cx="951.334" cy="-220.514" rx="4.00002" ry="4.00002"/>
<polygon fill="#740832" stroke="#740832" points="635.971,-96.5878 626.881,-90.4539 631.044,-95.7381 626.117,-94.8885 626.117,-94.8885 626.117,-94.8885 631.044,-95.7381 625.352,-99.323 635.971,-96.5878 635.971,-96.5878"/>
</g>
<!-- Object -->
<g id="node18" class="node"><title>Object</title>
<ellipse fill="none" stroke="black" cx="261" cy="-1619" rx="36.1697" ry="18"/>
<text text-anchor="middle" x="261" y="-1613.4" font-family="Times,serif" font-size="14.00">Object</text>
</g>
<!-- Object&#45;&gt;Ability -->
<g id="edge1" class="edge"><title>Object&#45;&gt;Ability</title>
<path fill="none" stroke="black" d="M261,-1600.82C261,-1574.59 261,-1524.24 261,-1492.21"/>
<polyline fill="none" stroke="black" points="261,-1486.84 261,-1491.84 "/>
</g>
<!-- ActiveRecord::Base -->
<g id="node19" class="node"><title>ActiveRecord::Base</title>
<ellipse fill="none" stroke="black" cx="1052" cy="-1619" rx="88.2033" ry="18"/>
<text text-anchor="middle" x="1052" y="-1613.4" font-family="Times,serif" font-size="14.00">ActiveRecord::Base</text>
</g>
<!-- ActiveRecord::Base&#45;&gt;Concentration -->
<g id="edge3" class="edge"><title>ActiveRecord::Base&#45;&gt;Concentration</title>
<path fill="none" stroke="black" d="M984.518,-1607.28C939.448,-1596.81 881.885,-1576.56 845,-1538 708.078,-1394.86 669.689,-1149.92 659.033,-1035.42"/>
<polyline fill="none" stroke="black" points="658.576,-1030.41 659.03,-1035.38 "/>
</g>
<!-- ActiveRecord::Base&#45;&gt;Consultation -->
<g id="edge4" class="edge"><title>ActiveRecord::Base&#45;&gt;Consultation</title>
<path fill="none" stroke="black" d="M963.707,-1617.74C768.417,-1614.79 317,-1593.82 317,-1463 317,-1463 317,-1463 317,-306 317,-260.76 309.605,-242.741 336,-206 368.798,-160.346 424.475,-129.701 470.952,-110.674"/>
<polyline fill="none" stroke="black" points="475.707,-108.755 471.07,-110.627 "/>
</g>
<!-- ActiveRecord::Base&#45;&gt;Course -->
<g id="edge9" class="edge"><title>ActiveRecord::Base&#45;&gt;Course</title>
<path fill="none" stroke="black" d="M974.889,-1610.11C835.291,-1593.69 555,-1549.88 555,-1463 555,-1463 555,-1463 555,-971 555,-885.535 572.557,-790.217 588.986,-719.735"/>
<polyline fill="none" stroke="black" points="590.166,-714.703 589.024,-719.571 "/>
</g>
<!-- ActiveRecord::Base&#45;&gt;Department -->
<g id="edge14" class="edge"><title>ActiveRecord::Base&#45;&gt;Department</title>
<path fill="none" stroke="black" d="M1046.42,-1601.03C1032.03,-1557.26 992.832,-1438.01 964.543,-1351.95"/>
<polyline fill="none" stroke="black" points="962.95,-1347.11 964.512,-1351.86 "/>
</g>
<!-- ActiveRecord::Base&#45;&gt;Faculty -->
<g id="edge17" class="edge"><title>ActiveRecord::Base&#45;&gt;Faculty</title>
<path fill="none" stroke="black" d="M1064.2,-1601.12C1074.82,-1586.42 1091.03,-1563.98 1107.32,-1541.44"/>
<polyline fill="none" stroke="black" points="1110.36,-1537.24 1107.43,-1541.29 "/>
</g>
<!-- ActiveRecord::Base&#45;&gt;Feedback -->
<g id="edge18" class="edge"><title>ActiveRecord::Base&#45;&gt;Feedback</title>
<path fill="none" stroke="black" d="M1130.2,-1610.4C1240.1,-1598.61 1433.59,-1573.54 1494,-1538 1531.77,-1515.78 1558,-1506.82 1558,-1463 1558,-1463 1558,-1463 1558,-613 1558,-529.514 1532.11,-503.94 1472,-446 1408.99,-385.265 1314.32,-347.449 1249.54,-327.087"/>
<polyline fill="none" stroke="black" points="1244.54,-325.531 1249.31,-327.016 "/>
</g>
<!-- ActiveRecord::Base&#45;&gt;Lecturer -->
<g id="edge23" class="edge"><title>ActiveRecord::Base&#45;&gt;Lecturer</title>
<path fill="none" stroke="black" d="M1051.7,-1601C1050.53,-1540.91 1045.69,-1333.01 1032,-1162 1031.12,-1151.01 1030.1,-1139.67 1028.98,-1128.25"/>
<polyline fill="none" stroke="black" points="1028.46,-1123.01 1028.95,-1127.98 "/>
</g>
<!-- ActiveRecord::Base&#45;&gt;Paper -->
<g id="edge24" class="edge"><title>ActiveRecord::Base&#45;&gt;Paper</title>
<path fill="none" stroke="black" d="M967.166,-1613.77C801.5,-1603.18 451,-1568.33 451,-1463 451,-1463 451,-1463 451,-613 451,-542.975 446.478,-464.048 442.098,-404.029"/>
<polyline fill="none" stroke="black" points="441.729,-399.013 442.096,-403.999 "/>
</g>
<!-- ActiveRecord::Base&#45;&gt;Setting -->
<g id="edge26" class="edge"><title>ActiveRecord::Base&#45;&gt;Setting</title>
<path fill="none" stroke="black" d="M1126.94,-1609.36C1172.5,-1599.86 1227.43,-1579.91 1257,-1538 1302.78,-1473.12 1297.47,-1264.48 1287.37,-1119.77"/>
<polyline fill="none" stroke="black" points="1287.01,-1114.65 1287.36,-1119.64 "/>
</g>
<!-- ActiveRecord::Base&#45;&gt;Staff -->
<g id="edge29" class="edge"><title>ActiveRecord::Base&#45;&gt;Staff</title>
<path fill="none" stroke="black" d="M1131.32,-1611.03C1207.01,-1602.78 1313.82,-1586.44 1344,-1558 1402.04,-1503.3 1420.14,-1411.92 1425.03,-1343.97"/>
<polyline fill="none" stroke="black" points="1425.38,-1338.71 1425.05,-1343.7 "/>
</g>
<!-- ActiveRecord::Base&#45;&gt;Student -->
<g id="edge36" class="edge"><title>ActiveRecord::Base&#45;&gt;Student</title>
<path fill="none" stroke="black" d="M1030.87,-1601.25C984.116,-1562.64 872.884,-1461.93 833,-1348 803.56,-1263.9 800.717,-1162.67 804.459,-1086.6"/>
<polyline fill="none" stroke="black" points="804.739,-1081.17 804.481,-1086.16 "/>
</g>
<!-- ActiveRecord::Base&#45;&gt;Supervisor -->
<g id="edge38" class="edge"><title>ActiveRecord::Base&#45;&gt;Supervisor</title>
<path fill="none" stroke="black" d="M1136.76,-1613.8C1190.01,-1606.18 1254.72,-1586.65 1288,-1538 1383.59,-1398.27 1249.08,-1298.66 1349,-1162 1371.06,-1131.84 1403.88,-1155.49 1424,-1124 1505.88,-995.825 1433.33,-934.07 1436,-782 1438.62,-632.69 1535.45,-557.403 1436,-446 1386.25,-390.273 1168.6,-441.842 1102,-408 1094.42,-404.15 1087.16,-399.404 1080.27,-394.089"/>
<polyline fill="none" stroke="black" points="1076.02,-390.709 1079.93,-393.825 "/>
</g>
<!-- ActiveRecord::Base&#45;&gt;User -->
<g id="edge39" class="edge"><title>ActiveRecord::Base&#45;&gt;User</title>
<path fill="none" stroke="black" d="M1125.9,-1609.08C1257.78,-1591.09 1520,-1545.01 1520,-1463 1520,-1463 1520,-1463 1520,-971 1520,-885.667 1476.37,-801.409 1430.39,-736.302"/>
<polyline fill="none" stroke="black" points="1427.35,-732.042 1430.25,-736.115 "/>
</g>
</g>
</svg>
