<?xml version="1.0" encoding="UTF-8" standalone="no"?>
<!DOCTYPE svg PUBLIC "-//W3C//DTD SVG 1.1//EN"
 "http://www.w3.org/Graphics/SVG/1.1/DTD/svg11.dtd">
<!-- Generated by graphviz version 2.34.0 (20131026.0416)
 -->
<!-- Title: models_diagram Pages: 1 -->
<svg width="1147pt" height="538pt"
 viewBox="0.00 0.00 1147.00 538.00" xmlns="http://www.w3.org/2000/svg" xmlns:xlink="http://www.w3.org/1999/xlink">
<g id="graph0" class="graph" transform="scale(1 1) rotate(0) translate(4 534)">
<title>models_diagram</title>
<polygon fill="white" stroke="white" points="-4,4 -4,-534 1143,-534 1143,4 -4,4"/>
<!-- _diagram_info -->
<g id="node1" class="node"><title>_diagram_info</title>
<text text-anchor="start" x="7.31226" y="-513" font-family="Times,serif" font-size="13.00">Models diagram</text>
<text text-anchor="start" x="7.31226" y="-497.4" font-family="Times,serif" font-size="13.00">Date: Feb 19 2014 &#45; 17:15</text>
<text text-anchor="start" x="7.31226" y="-481.8" font-family="Times,serif" font-size="13.00">Migration version: 20140218012730</text>
<text text-anchor="start" x="7.31226" y="-466.2" font-family="Times,serif" font-size="13.00">Generated by RailRoady 1.1.1</text>
<text text-anchor="start" x="7.31226" y="-450.6" font-family="Times,serif" font-size="13.00">http://railroady.prestonlee.com</text>
</g>
<!-- Ability -->
<g id="node2" class="node"><title>Ability</title>
<polygon fill="none" stroke="black" points="288.255,-406 233.745,-406 233.745,-370 288.255,-370 288.255,-406"/>
<text text-anchor="middle" x="261" y="-382.4" font-family="Times,serif" font-size="14.00">Ability</text>
</g>
<!-- Concentration -->
<g id="node3" class="node"><title>Concentration</title>
<ellipse fill="none" stroke="black" cx="533" cy="-240" rx="65.6147" ry="18"/>
<text text-anchor="middle" x="533" y="-234.4" font-family="Times,serif" font-size="14.00">Concentration</text>
</g>
<!-- Course -->
<g id="node5" class="node"><title>Course</title>
<ellipse fill="none" stroke="black" cx="448" cy="-166" rx="38.0929" ry="18"/>
<text text-anchor="middle" x="448" y="-160.4" font-family="Times,serif" font-size="14.00">Course</text>
</g>
<!-- Concentration&#45;&gt;Course -->
<g id="edge2" class="edge"><title>Concentration&#45;&gt;Course</title>
<path fill="none" stroke="#bfc035" d="M498.032,-219.153C491.094,-214.564 484.083,-209.423 478,-204 473.756,-200.217 469.628,-195.797 465.86,-191.355"/>
<ellipse fill="none" stroke="#bfc035" cx="501.536" cy="-221.393" rx="4.00002" ry="4.00002"/>
<polygon fill="#bfc035" stroke="#bfc035" points="465.785,-191.262 463.024,-180.649 462.651,-187.366 459.518,-183.47 459.518,-183.47 459.518,-183.47 462.651,-187.366 456.011,-186.29 465.785,-191.262 465.785,-191.262"/>
</g>
<!-- Consultation -->
<g id="node4" class="node"><title>Consultation</title>
<ellipse fill="none" stroke="black" cx="439" cy="-18" rx="60.095" ry="18"/>
<text text-anchor="middle" x="439" y="-12.4" font-family="Times,serif" font-size="14.00">Consultation</text>
</g>
<!-- Course&#45;&gt;Consultation -->
<g id="edge8" class="edge"><title>Course&#45;&gt;Consultation</title>
<path fill="none" stroke="#b63ffe" d="M446.447,-139.8C444.846,-113.827 442.356,-73.4489 440.703,-46.6216"/>
<ellipse fill="none" stroke="#b63ffe" cx="446.704" cy="-143.974" rx="4" ry="4"/>
<polygon fill="#b63ffe" stroke="#b63ffe" points="440.687,-46.3589 444.563,-36.1009 440.379,-41.3684 440.071,-36.3779 440.071,-36.3779 440.071,-36.3779 440.379,-41.3684 435.58,-36.6548 440.687,-46.3589 440.687,-46.3589"/>
</g>
<!-- Feedback -->
<g id="node8" class="node"><title>Feedback</title>
<ellipse fill="none" stroke="black" cx="957" cy="-92" rx="48.0563" ry="18"/>
<text text-anchor="middle" x="957" y="-86.4" font-family="Times,serif" font-size="14.00">Feedback</text>
</g>
<!-- Course&#45;&gt;Feedback -->
<g id="edge7" class="edge"><title>Course&#45;&gt;Feedback</title>
<path fill="none" stroke="#5b6dba" d="M492.284,-158.736C585.466,-145.555 801.529,-114.992 902.793,-100.668"/>
<ellipse fill="none" stroke="#5b6dba" cx="488.159" cy="-159.319" rx="4.00001" ry="4.00001"/>
<polygon fill="#5b6dba" stroke="#5b6dba" points="902.909,-100.651 913.441,-103.706 907.86,-99.9511 912.811,-99.2507 912.811,-99.2507 912.811,-99.2507 907.86,-99.9511 912.181,-94.7951 902.909,-100.651 902.909,-100.651"/>
</g>
<!-- Paper -->
<g id="node10" class="node"><title>Paper</title>
<ellipse fill="none" stroke="black" cx="378" cy="-92" rx="33.036" ry="18"/>
<text text-anchor="middle" x="378" y="-86.4" font-family="Times,serif" font-size="14.00">Paper</text>
</g>
<!-- Course&#45;&gt;Paper -->
<g id="edge5" class="edge"><title>Course&#45;&gt;Paper</title>
<path fill="none" stroke="#469055" d="M427.016,-143.417C418.591,-134.751 408.868,-124.75 400.314,-115.951"/>
<ellipse fill="none" stroke="#469055" cx="430.023" cy="-146.509" rx="4.00002" ry="4.00002"/>
<polygon fill="#469055" stroke="#469055" points="400.13,-115.762 396.386,-105.456 396.645,-112.177 393.159,-108.592 393.159,-108.592 393.159,-108.592 396.645,-112.177 389.933,-111.729 400.13,-115.762 400.13,-115.762"/>
</g>
<!-- Pkl -->
<g id="node11" class="node"><title>Pkl</title>
<ellipse fill="none" stroke="black" cx="494" cy="-92" rx="27" ry="18"/>
<text text-anchor="middle" x="494" y="-86.4" font-family="Times,serif" font-size="14.00">Pkl</text>
</g>
<!-- Course&#45;&gt;Pkl -->
<g id="edge25" class="edge"><title>Course&#45;&gt;Pkl</title>
<path fill="none" stroke="black" d="M458.438,-148.662C465.178,-138.113 473.993,-124.315 481.161,-113.096"/>
<polyline fill="none" stroke="black" points="483.919,-108.778 481.227,-112.992 "/>
</g>
<!-- Skripsi -->
<g id="node13" class="node"><title>Skripsi</title>
<ellipse fill="none" stroke="black" cx="577" cy="-92" rx="38.1069" ry="18"/>
<text text-anchor="middle" x="577" y="-86.4" font-family="Times,serif" font-size="14.00">Skripsi</text>
</g>
<!-- Course&#45;&gt;Skripsi -->
<g id="edge27" class="edge"><title>Course&#45;&gt;Skripsi</title>
<path fill="none" stroke="black" d="M471.661,-151.794C493.345,-139.691 525.492,-121.749 548.565,-108.871"/>
<polyline fill="none" stroke="black" points="553.053,-106.366 548.687,-108.803 "/>
</g>
<!-- Supervisor -->
<g id="node16" class="node"><title>Supervisor</title>
<ellipse fill="none" stroke="black" cx="716" cy="-92" rx="52.3215" ry="18"/>
<text text-anchor="middle" x="716" y="-86.4" font-family="Times,serif" font-size="14.00">Supervisor</text>
</g>
<!-- Course&#45;&gt;Supervisor -->
<g id="edge6" class="edge"><title>Course&#45;&gt;Supervisor</title>
<path fill="none" stroke="#26312a" d="M487.866,-154.082C514.963,-146.678 551.63,-136.695 584,-128 611.067,-120.73 641.283,-112.711 665.969,-106.185"/>
<ellipse fill="none" stroke="#26312a" cx="483.993" cy="-155.14" rx="4.00001" ry="4.00001"/>
<polygon fill="#26312a" stroke="#26312a" points="666.166,-106.133 676.984,-107.929 671,-104.855 675.834,-103.578 675.834,-103.578 675.834,-103.578 671,-104.855 674.685,-99.2275 666.166,-106.133 666.166,-106.133"/>
</g>
<!-- Department -->
<g id="node6" class="node"><title>Department</title>
<ellipse fill="none" stroke="black" cx="711" cy="-314" rx="56.4286" ry="18"/>
<text text-anchor="middle" x="711" y="-308.4" font-family="Times,serif" font-size="14.00">Department</text>
</g>
<!-- Department&#45;&gt;Concentration -->
<g id="edge10" class="edge"><title>Department&#45;&gt;Concentration</title>
<path fill="none" stroke="#92a759" d="M669.939,-296.391C642.268,-285.198 605.786,-270.442 577.435,-258.974"/>
<ellipse fill="none" stroke="#92a759" cx="673.811" cy="-297.957" rx="4.00001" ry="4.00001"/>
<polygon fill="#92a759" stroke="#92a759" points="577.427,-258.971 569.845,-251.049 572.792,-257.096 568.157,-255.221 568.157,-255.221 568.157,-255.221 572.792,-257.096 566.47,-259.393 577.427,-258.971 577.427,-258.971"/>
</g>
<!-- Lecturer -->
<g id="node9" class="node"><title>Lecturer</title>
<ellipse fill="none" stroke="black" cx="792" cy="-240" rx="43.605" ry="18"/>
<text text-anchor="middle" x="792" y="-234.4" font-family="Times,serif" font-size="14.00">Lecturer</text>
</g>
<!-- Department&#45;&gt;Lecturer -->
<g id="edge12" class="edge"><title>Department&#45;&gt;Lecturer</title>
<path fill="none" stroke="#febc1d" d="M735.186,-291.062C740.698,-286.094 746.54,-280.852 752,-276 756.596,-271.916 761.508,-267.588 766.262,-263.418"/>
<ellipse fill="none" stroke="#febc1d" cx="731.877" cy="-294.05" rx="4.00002" ry="4.00002"/>
<polygon fill="#febc1d" stroke="#febc1d" points="766.502,-263.208 776.991,-260.009 770.265,-259.915 774.028,-256.622 774.028,-256.622 774.028,-256.622 770.265,-259.915 771.064,-253.236 766.502,-263.208 766.502,-263.208"/>
</g>
<!-- Setting -->
<g id="node12" class="node"><title>Setting</title>
<ellipse fill="none" stroke="black" cx="914" cy="-240" rx="38.0999" ry="18"/>
<text text-anchor="middle" x="914" y="-234.4" font-family="Times,serif" font-size="14.00">Setting</text>
</g>
<!-- Department&#45;&gt;Setting -->
<g id="edge13" class="edge"><title>Department&#45;&gt;Setting</title>
<path fill="none" stroke="#1921d6" d="M754.878,-297.437C791.098,-284.591 841.957,-266.552 876.349,-254.354"/>
<ellipse fill="none" stroke="#1921d6" cx="751.062" cy="-298.791" rx="4.00001" ry="4.00001"/>
<ellipse fill="#1921d6" stroke="#1921d6" cx="880.517" cy="-252.876" rx="4.00001" ry="4.00001"/>
</g>
<!-- Student -->
<g id="node15" class="node"><title>Student</title>
<ellipse fill="none" stroke="black" cx="657" cy="-240" rx="40.3171" ry="18"/>
<text text-anchor="middle" x="657" y="-234.4" font-family="Times,serif" font-size="14.00">Student</text>
</g>
<!-- Department&#45;&gt;Student -->
<g id="edge11" class="edge"><title>Department&#45;&gt;Student</title>
<path fill="none" stroke="#7ec3ec" d="M693.529,-289.705C687.765,-282.021 681.337,-273.45 675.5,-265.666"/>
<ellipse fill="none" stroke="#7ec3ec" cx="696.076" cy="-293.101" rx="4.00002" ry="4.00002"/>
<polygon fill="#7ec3ec" stroke="#7ec3ec" points="675.457,-265.609 673.057,-254.909 672.457,-261.609 669.456,-257.609 669.456,-257.609 669.456,-257.609 672.457,-261.609 665.856,-260.309 675.457,-265.609 675.457,-265.609"/>
</g>
<!-- Faculty -->
<g id="node7" class="node"><title>Faculty</title>
<ellipse fill="none" stroke="black" cx="864" cy="-388" rx="40.0039" ry="18"/>
<text text-anchor="middle" x="864" y="-382.4" font-family="Times,serif" font-size="14.00">Faculty</text>
</g>
<!-- Faculty&#45;&gt;Department -->
<g id="edge15" class="edge"><title>Faculty&#45;&gt;Department</title>
<path fill="none" stroke="#65234b" d="M829.797,-370.904C806.253,-359.825 774.916,-345.078 750.338,-333.512"/>
<ellipse fill="none" stroke="#65234b" cx="833.73" cy="-372.755" rx="4.00002" ry="4.00002"/>
<polygon fill="#65234b" stroke="#65234b" points="750.327,-333.507 743.195,-325.177 745.803,-331.378 741.279,-329.249 741.279,-329.249 741.279,-329.249 745.803,-331.378 739.363,-333.321 750.327,-333.507 750.327,-333.507"/>
</g>
<!-- Staff -->
<g id="node14" class="node"><title>Staff</title>
<ellipse fill="none" stroke="black" cx="1043" cy="-314" rx="29.4567" ry="18"/>
<text text-anchor="middle" x="1043" y="-308.4" font-family="Times,serif" font-size="14.00">Staff</text>
</g>
<!-- Faculty&#45;&gt;Staff -->
<g id="edge16" class="edge"><title>Faculty&#45;&gt;Staff</title>
<path fill="none" stroke="#28b165" d="M900.492,-372.322C932.5,-359.447 978.647,-340.885 1009.67,-328.405"/>
<ellipse fill="none" stroke="#28b165" cx="896.47" cy="-373.939" rx="4.00001" ry="4.00001"/>
<polygon fill="#28b165" stroke="#28b165" points="1009.9,-328.313 1020.86,-328.756 1014.54,-326.447 1019.18,-324.581 1019.18,-324.581 1019.18,-324.581 1014.54,-326.447 1017.5,-320.406 1009.9,-328.313 1009.9,-328.313"/>
</g>
<!-- Lecturer&#45;&gt;Feedback -->
<g id="edge22" class="edge"><title>Lecturer&#45;&gt;Feedback</title>
<path fill="none" stroke="#5cc502" d="M836.819,-228.789C846.754,-226.54 857.232,-224.179 867,-222 903.417,-213.876 923.517,-231.255 949,-204 969.667,-181.895 968.04,-145.289 963.662,-120.2"/>
<ellipse fill="none" stroke="#5cc502" cx="832.893" cy="-229.678" rx="4.00001" ry="4.00001"/>
<polygon fill="#5cc502" stroke="#5cc502" points="963.629,-120.036 966.088,-109.349 962.652,-115.132 961.675,-110.229 961.675,-110.229 961.675,-110.229 962.652,-115.132 957.261,-111.109 963.629,-120.036 963.629,-120.036"/>
</g>
<!-- Lecturer&#45;&gt;Supervisor -->
<g id="edge20" class="edge"><title>Lecturer&#45;&gt;Supervisor</title>
<path fill="none" stroke="#e3f494" d="M779.415,-214.823C765.635,-188.351 743.622,-146.064 729.493,-118.921"/>
<ellipse fill="none" stroke="#e3f494" cx="781.435" cy="-218.704" rx="4.00002" ry="4.00002"/>
<polygon fill="#e3f494" stroke="#e3f494" points="729.468,-118.873 728.842,-107.925 727.159,-114.438 724.851,-110.002 724.851,-110.002 724.851,-110.002 727.159,-114.438 720.859,-112.08 729.468,-118.873 729.468,-118.873"/>
</g>
<!-- Lecturer&#45;&gt;Supervisor -->
<g id="edge21" class="edge"><title>Lecturer&#45;&gt;Supervisor</title>
<path fill="none" stroke="#3d08ca" d="M788.846,-214.031C785.652,-195.003 779.485,-168.647 768,-148 761.397,-136.13 751.649,-124.878 742.371,-115.681"/>
<ellipse fill="none" stroke="#3d08ca" cx="789.462" cy="-218.002" rx="4.00001" ry="4.00001"/>
<polygon fill="#3d08ca" stroke="#3d08ca" points="742.35,-115.661 738.201,-105.511 738.726,-112.217 735.101,-108.773 735.101,-108.773 735.101,-108.773 738.726,-112.217 732.001,-112.036 742.35,-115.661 742.35,-115.661"/>
<text text-anchor="middle" x="841.493" y="-160.4" font-family="Times,serif" font-size="14.00">assigned_supervisors</text>
</g>
<!-- User -->
<g id="node17" class="node"><title>User</title>
<ellipse fill="none" stroke="black" cx="1033" cy="-166" rx="28.9087" ry="18"/>
<text text-anchor="middle" x="1033" y="-160.4" font-family="Times,serif" font-size="14.00">User</text>
</g>
<!-- Lecturer&#45;&gt;User -->
<g id="edge19" class="edge"><title>Lecturer&#45;&gt;User</title>
<path fill="none" stroke="#2e4c1f" d="M836.385,-228.266C846.42,-226.027 857.048,-223.803 867,-222 925.261,-211.446 946.525,-231.425 999,-204 1005.81,-200.439 1011.97,-194.945 1017.1,-189.271"/>
<ellipse fill="none" stroke="#2e4c1f" cx="832.391" cy="-229.172" rx="4.00001" ry="4.00001"/>
<ellipse fill="#2e4c1f" stroke="#2e4c1f" cx="1019.69" cy="-186.19" rx="4.00002" ry="4.00002"/>
</g>
<!-- Staff&#45;&gt;User -->
<g id="edge28" class="edge"><title>Staff&#45;&gt;User</title>
<path fill="none" stroke="#a11ee3" d="M1041.27,-287.8C1039.45,-261.134 1036.58,-219.285 1034.75,-192.505"/>
<ellipse fill="none" stroke="#a11ee3" cx="1041.56" cy="-291.976" rx="4" ry="4"/>
<ellipse fill="#a11ee3" stroke="#a11ee3" cx="1034.46" cy="-188.369" rx="4" ry="4"/>
</g>
<!-- Student&#45;&gt;Course -->
<g id="edge31" class="edge"><title>Student&#45;&gt;Course</title>
<path fill="none" stroke="#de8eeb" d="M619.099,-225.425C615.041,-224.178 610.952,-223.007 607,-222 561.544,-210.414 546.532,-221.477 503,-204 493.068,-200.012 483.094,-194.039 474.418,-188.049"/>
<ellipse fill="none" stroke="#de8eeb" cx="623.011" cy="-226.675" rx="4.00001" ry="4.00001"/>
<polygon fill="#de8eeb" stroke="#de8eeb" points="474.33,-187.985 468.863,-178.479 470.278,-185.056 466.226,-182.126 466.226,-182.126 466.226,-182.126 470.278,-185.056 463.59,-185.773 474.33,-187.985 474.33,-187.985"/>
</g>
<!-- Student&#45;&gt;Feedback -->
<g id="edge35" class="edge"><title>Student&#45;&gt;Feedback</title>
<path fill="none" stroke="#e7cfc3" d="M700.904,-229.689C770.772,-214.808 899.868,-187.021 904,-184 925.816,-168.051 940.109,-140.182 948.293,-119.475"/>
<ellipse fill="none" stroke="#e7cfc3" cx="696.601" cy="-230.605" rx="4.00001" ry="4.00001"/>
<polygon fill="#e7cfc3" stroke="#e7cfc3" points="948.342,-119.342 956.044,-111.537 950.084,-114.656 951.826,-109.969 951.826,-109.969 951.826,-109.969 950.084,-114.656 947.608,-108.401 948.342,-119.342 948.342,-119.342"/>
</g>
<!-- Student&#45;&gt;Pkl -->
<g id="edge33" class="edge"><title>Student&#45;&gt;Pkl</title>
<path fill="none" stroke="#45b85a" d="M629.764,-219.529C616,-209.359 599.242,-196.463 585,-184 559.582,-161.758 532.451,-134.052 514.494,-115.091"/>
<ellipse fill="none" stroke="#45b85a" cx="633.03" cy="-221.923" rx="4.00002" ry="4.00002"/>
<polygon fill="#45b85a" stroke="#45b85a" points="514.475,-115.072 510.899,-104.705 511.049,-111.43 507.622,-107.789 507.622,-107.789 507.622,-107.789 511.049,-111.43 504.345,-110.873 514.475,-115.072 514.475,-115.072"/>
</g>
<!-- Student&#45;&gt;Skripsi -->
<g id="edge32" class="edge"><title>Student&#45;&gt;Skripsi</title>
<path fill="none" stroke="#9d5f10" d="M632.318,-218.182C627.405,-213.675 622.407,-208.812 618,-204 610.496,-195.806 607.942,-193.952 603,-184 592.873,-163.607 586.092,-138.628 582.001,-120.003"/>
<ellipse fill="none" stroke="#9d5f10" cx="635.465" cy="-221.002" rx="4.00002" ry="4.00002"/>
<polygon fill="#9d5f10" stroke="#9d5f10" points="581.981,-119.908 584.356,-109.202 580.965,-115.012 579.95,-110.116 579.95,-110.116 579.95,-110.116 580.965,-115.012 575.543,-111.031 581.981,-119.908 581.981,-119.908"/>
</g>
<!-- Student&#45;&gt;Supervisor -->
<g id="edge34" class="edge"><title>Student&#45;&gt;Supervisor</title>
<path fill="none" stroke="#386b3c" d="M633.86,-217.447C616.603,-198.665 598.207,-170.922 612.014,-148 623.84,-128.367 645.281,-115.377 665.635,-106.98"/>
<ellipse fill="none" stroke="#386b3c" cx="636.851" cy="-220.567" rx="4.00002" ry="4.00002"/>
<polygon fill="#386b3c" stroke="#386b3c" points="665.841,-106.901 676.789,-107.53 670.511,-105.114 675.181,-103.327 675.181,-103.327 675.181,-103.327 670.511,-105.114 673.573,-99.1245 665.841,-106.901 665.841,-106.901"/>
<text text-anchor="middle" x="671.493" y="-160.4" font-family="Times,serif" font-size="14.00">assigned_supervisors</text>
</g>
<!-- Student&#45;&gt;User -->
<g id="edge30" class="edge"><title>Student&#45;&gt;User</title>
<path fill="none" stroke="#632d38" d="M699.983,-229.076C712.509,-226.459 726.253,-223.853 739,-222 833.016,-208.332 860.102,-228.093 952,-204 970.507,-199.148 990.049,-190.341 1005.3,-182.537"/>
<ellipse fill="none" stroke="#632d38" cx="695.863" cy="-229.955" rx="4.00001" ry="4.00001"/>
<ellipse fill="#632d38" stroke="#632d38" cx="1008.88" cy="-180.663" rx="4.00002" ry="4.00002"/>
</g>
<!-- Supervisor&#45;&gt;Consultation -->
<g id="edge37" class="edge"><title>Supervisor&#45;&gt;Consultation</title>
<path fill="none" stroke="#533df3" d="M667.642,-78.4304C618.759,-65.7245 543.391,-46.1341 492.685,-32.9542"/>
<ellipse fill="none" stroke="#533df3" cx="671.554" cy="-79.4472" rx="4.00001" ry="4.00001"/>
<polygon fill="#533df3" stroke="#533df3" points="492.566,-32.9234 484.02,-26.0524 487.727,-31.6656 482.888,-30.4077 482.888,-30.4077 482.888,-30.4077 487.727,-31.6656 481.756,-34.763 492.566,-32.9234 492.566,-32.9234"/>
</g>
<!-- Object -->
<g id="node18" class="node"><title>Object</title>
<ellipse fill="none" stroke="black" cx="261" cy="-487" rx="36.1697" ry="18"/>
<text text-anchor="middle" x="261" y="-481.4" font-family="Times,serif" font-size="14.00">Object</text>
</g>
<!-- Object&#45;&gt;Ability -->
<g id="edge1" class="edge"><title>Object&#45;&gt;Ability</title>
<path fill="none" stroke="black" d="M261,-468.658C261,-452.658 261,-428.811 261,-411.379"/>
<polyline fill="none" stroke="black" points="261,-406.192 261,-411.192 "/>
</g>
<!-- ActiveRecord::Base -->
<g id="node19" class="node"><title>ActiveRecord::Base</title>
<ellipse fill="none" stroke="black" cx="796" cy="-487" rx="88.2033" ry="18"/>
<text text-anchor="middle" x="796" y="-481.4" font-family="Times,serif" font-size="14.00">ActiveRecord::Base</text>
</g>
<!-- ActiveRecord::Base&#45;&gt;Concentration -->
<g id="edge3" class="edge"><title>ActiveRecord::Base&#45;&gt;Concentration</title>
<path fill="none" stroke="black" d="M762.35,-470.323C733.792,-456.032 692.685,-433.061 662,-406 611.889,-361.807 567.254,-296.047 546.051,-262.449"/>
<polyline fill="none" stroke="black" points="543.339,-258.123 545.995,-262.359 "/>
</g>
<!-- ActiveRecord::Base&#45;&gt;Consultation -->
<g id="edge4" class="edge"><title>ActiveRecord::Base&#45;&gt;Consultation</title>
<path fill="none" stroke="black" d="M707.586,-485.898C569.182,-483.317 317,-467.802 317,-389 317,-389 317,-389 317,-91 317,-57.4998 351.54,-39.2653 383.863,-29.5356"/>
<polyline fill="none" stroke="black" points="389.026,-28.046 384.222,-29.4321 "/>
</g>
<!-- ActiveRecord::Base&#45;&gt;Course -->
<g id="edge9" class="edge"><title>ActiveRecord::Base&#45;&gt;Course</title>
<path fill="none" stroke="black" d="M714.097,-480.145C608.698,-470.312 439,-445.68 439,-389 439,-389 439,-389 439,-239 439,-222.171 441.451,-203.299 443.795,-189.099"/>
<polyline fill="none" stroke="black" points="444.649,-184.091 443.808,-189.02 "/>
</g>
<!-- ActiveRecord::Base&#45;&gt;Department -->
<g id="edge14" class="edge"><title>ActiveRecord::Base&#45;&gt;Department</title>
<path fill="none" stroke="black" d="M787.539,-468.979C772.01,-437.738 738.983,-371.296 721.837,-336.802"/>
<polyline fill="none" stroke="black" points="719.427,-331.952 721.652,-336.43 "/>
</g>
<!-- ActiveRecord::Base&#45;&gt;Faculty -->
<g id="edge17" class="edge"><title>ActiveRecord::Base&#45;&gt;Faculty</title>
<path fill="none" stroke="black" d="M807.845,-469.104C819.421,-452.591 837.066,-427.421 849.481,-409.711"/>
<polyline fill="none" stroke="black" points="852.518,-405.379 849.647,-409.473 "/>
</g>
<!-- ActiveRecord::Base&#45;&gt;Feedback -->
<g id="edge18" class="edge"><title>ActiveRecord::Base&#45;&gt;Feedback</title>
<path fill="none" stroke="black" d="M876.418,-479.366C977.799,-468.739 1139,-443.303 1139,-389 1139,-389 1139,-389 1139,-165 1139,-109.204 1064.12,-95.363 1010.42,-92.6112"/>
<polyline fill="none" stroke="black" points="1005.29,-92.3784 1010.29,-92.6053 "/>
</g>
<!-- ActiveRecord::Base&#45;&gt;Lecturer -->
<g id="edge23" class="edge"><title>ActiveRecord::Base&#45;&gt;Lecturer</title>
<path fill="none" stroke="black" d="M795.719,-468.772C795.01,-425.369 793.152,-311.559 792.363,-263.225"/>
<polyline fill="none" stroke="black" points="792.281,-258.209 792.363,-263.208 "/>
</g>
<!-- ActiveRecord::Base&#45;&gt;Paper -->
<g id="edge24" class="edge"><title>ActiveRecord::Base&#45;&gt;Paper</title>
<path fill="none" stroke="black" d="M709.552,-483.17C587.668,-476.786 380,-456.068 380,-389 380,-389 380,-389 380,-165 380,-148.294 379.455,-129.417 378.934,-115.184"/>
<polyline fill="none" stroke="black" points="378.745,-110.162 378.934,-115.159 "/>
</g>
<!-- ActiveRecord::Base&#45;&gt;Setting -->
<g id="edge26" class="edge"><title>ActiveRecord::Base&#45;&gt;Setting</title>
<path fill="none" stroke="black" d="M835.472,-470.756C862.636,-457.944 896.658,-436.745 913,-406 937.376,-360.14 927.727,-296.48 920.021,-263.233"/>
<polyline fill="none" stroke="black" points="918.806,-258.166 919.972,-263.028 "/>
</g>
<!-- ActiveRecord::Base&#45;&gt;Staff -->
<g id="edge29" class="edge"><title>ActiveRecord::Base&#45;&gt;Staff</title>
<path fill="none" stroke="black" d="M875.674,-479.069C916.877,-471.718 965.428,-456.679 999,-426 1024.57,-402.631 1035.51,-362.472 1040.02,-337.401"/>
<polyline fill="none" stroke="black" points="1040.89,-332.292 1040.05,-337.221 "/>
</g>
<!-- ActiveRecord::Base&#45;&gt;Student -->
<g id="edge36" class="edge"><title>ActiveRecord::Base&#45;&gt;Student</title>
<path fill="none" stroke="black" d="M770.415,-469.632C734.428,-444.9 670.415,-394.222 645,-332 635.857,-309.616 641.768,-281.797 648.1,-262.85"/>
<polyline fill="none" stroke="black" points="649.884,-257.753 648.232,-262.472 "/>
</g>
<!-- ActiveRecord::Base&#45;&gt;Supervisor -->
<g id="edge38" class="edge"><title>ActiveRecord::Base&#45;&gt;Supervisor</title>
<path fill="none" stroke="black" d="M834.034,-470.651C858.138,-459.985 889.312,-444.409 914,-426 923.829,-418.671 925.503,-415.701 933,-406 941.88,-394.51 1067.01,-197.964 1071,-184 1075.39,-168.615 1081.41,-160.149 1071,-148 1051.76,-125.552 866.28,-106.185 771.365,-97.6496"/>
<polyline fill="none" stroke="black" points="766.359,-97.2019 771.339,-97.6474 "/>
</g>
<!-- ActiveRecord::Base&#45;&gt;User -->
<g id="edge39" class="edge"><title>ActiveRecord::Base&#45;&gt;User</title>
<path fill="none" stroke="black" d="M870.611,-477.289C960.906,-464.622 1101,-437.202 1101,-389 1101,-389 1101,-389 1101,-239 1101,-213.424 1078.04,-193.262 1058.8,-180.856"/>
<polyline fill="none" stroke="black" points="1054.52,-178.176 1058.76,-180.825 "/>
</g>
</g>
</svg>
